<svg version="1.1" xmlns="http://www.w3.org/2000/svg" xmlns:xlink="http://www.w3.org/1999/xlink" width="450.89517" height="254.59341" viewBox="0,0,450.89517,254.59341"><g transform="translate(-18.74824,-51.59883)"><g data-paper-data="{&quot;isPaintingLayer&quot;:true}" fill-rule="nonzero" stroke-linecap="butt" stroke-linejoin="miter" stroke-dasharray="" stroke-dashoffset="0" style="mix-blend-mode: normal"><path d="M74.27293,79.58127h37.60324c1.89383,0 3.41848,1.52464 3.41848,3.41848v37.60324c0,1.89383 -1.52464,3.41848 -3.41848,3.41848h-37.60323c-1.89383,0 -3.41848,-1.52464 -3.41848,-3.41848v-37.60324c0,-1.89383 1.52465,-3.41848 3.41848,-3.41848z" fill="#cccccc" stroke="#000000" stroke-width="2" stroke-miterlimit="4"></path><path d="M86.67325,99.22248c1.37985,-0.21143 2.67346,-0.38947 3.88084,-0.53413c0.35609,-1.34647 0.60647,-2.58166 0.75113,-3.70558l1.35204,0.25038c-0.25038,1.2964 -0.50076,2.40918 -0.75114,3.33836l0.26707,-0.01668c0.31158,-0.01112 0.59812,-0.01668 0.85963,-0.01668c1.8361,0 2.75415,1.13225 2.75415,3.39677c0,2.20888 -0.33106,3.97543 -0.99316,5.29964c-0.39503,0.78451 -1.01542,1.17677 -1.86114,1.17677c-0.73444,0 -1.5273,-0.25593 -2.37858,-0.76781l0.06678,-1.45219c0.8791,0.58978 1.58015,0.88466 2.10316,0.88466c0.43399,0 0.76504,-0.23368 0.99316,-0.70105c0.47849,-1.04601 0.71775,-2.54272 0.71775,-4.49009c0,-1.48 -0.48963,-2.22001 -1.46888,-2.22001c-0.32827,0 -0.79008,0.02225 -1.38542,0.06677c-0.19473,0.76782 -0.53692,1.7888 -1.02654,3.06294c-0.85128,2.22557 -1.73594,4.08114 -2.65399,5.56671l-1.17677,-0.75114c1.20737,-1.76933 2.26174,-4.00325 3.16309,-6.70175c0.04451,-0.11128 0.15857,-0.44511 0.34218,-1.0015c-0.70661,0.07789 -1.79436,0.26429 -3.26324,0.55917l-0.29211,-1.24353zM99.98494,103.57904c-1.0182,-2.26452 -2.27007,-4.18964 -3.75564,-5.77536l1.07662,-0.71775c1.51895,1.6191 2.80144,3.48024 3.84745,5.5834z" fill="#000000" stroke="none" stroke-width="1" stroke-miterlimit="10"></path><path d="M73.45986,99.61359c0.9047,0 1.75096,-0.0651 2.53881,-0.19529c-0.29044,-0.59757 -0.4874,-1.02487 -0.59089,-1.28193l0.73611,-0.23536c0.09014,0.23034 0.28877,0.68437 0.5959,1.36205c0.72109,-0.16692 1.38709,-0.39561 1.99801,-0.68604l0.34051,0.63595c-0.59089,0.27375 -1.26525,0.49909 -2.02305,0.67602l0.09515,0.17527c0.1736,0.34719 0.31715,0.61258 0.43066,0.79619c0.84461,-0.23368 1.57904,-0.50576 2.20331,-0.81623l0.35053,0.68603c-0.64431,0.29377 -1.37541,0.54248 -2.19331,0.74612c0.37055,0.62427 0.87298,1.38041 1.50727,2.26842l-0.52578,0.51077c-0.67768,-0.32382 -1.39209,-0.57588 -2.14322,-0.75615l0.16524,-0.56585c0.53748,0.13688 0.99484,0.27041 1.37207,0.4006c-0.3739,-0.51744 -0.74279,-1.07829 -1.10667,-1.68254c-1.32867,0.26039 -2.56552,0.42064 -3.71058,0.48073l-0.15523,-0.74613c1.24855,-0.01001 2.41696,-0.12684 3.50527,-0.35052c-0.28042,-0.50409 -0.45735,-0.83459 -0.5308,-0.99149c-0.88133,0.16358 -1.78768,0.25538 -2.71908,0.27541zM78.67771,106.37876c-0.23368,0.00668 -0.47571,0.01002 -0.72608,0.01002c-1.55901,0 -2.6323,-0.21199 -3.21985,-0.63596c-0.52079,-0.37723 -0.78118,-0.96478 -0.78118,-1.76265c0,-0.05675 0.00668,-0.16191 0.02004,-0.31548l0.67602,0.12018c-0.00668,0.06343 -0.01001,0.12519 -0.01001,0.18528c0,0.56085 0.19529,0.96478 0.58588,1.21182c0.49074,0.30713 1.36538,0.46069 2.62394,0.46069c0.11684,0 0.38057,-0.00667 0.79119,-0.02003l0.04006,0.74612z" fill="#000000" stroke="none" stroke-width="1" stroke-miterlimit="10"></path><path d="M93.33925,90.59935c-1.03823,-1.37207 -2.19163,-2.62562 -3.46021,-3.76066c-0.34719,-0.31046 -0.52078,-0.56418 -0.52078,-0.76114c0,-0.19029 0.222,-0.46737 0.666,-0.83125c1.27191,-1.0449 2.26675,-2.14156 2.98449,-3.28995l0.70606,0.52078c-0.85462,1.18511 -1.93457,2.29345 -3.23987,3.325c-0.13688,0.11351 -0.20531,0.20197 -0.20531,0.2654c0,0.06677 0.12686,0.21699 0.38057,0.45068c1.332,1.21183 2.45369,2.35689 3.36507,3.43518z" fill="#000000" stroke="none" stroke-width="1" stroke-miterlimit="10"></path><path d="M108.08729,100.52493c0.36054,0.02003 0.68771,0.03005 0.98148,0.03005c0.58755,0 1.24687,-0.03672 1.97797,-0.11017c-0.00668,-0.78118 -0.05342,-1.53731 -0.14021,-2.26841h0.82124c0.06009,0.90135 0.09348,1.6191 0.10015,2.15324c0.50409,-0.09347 0.97646,-0.1953 1.41713,-0.30546l0.06009,0.7261c-0.43399,0.13353 -0.91972,0.23536 -1.45719,0.30546c0.00668,0.25371 0.01002,0.51744 0.01002,0.79118c0,1.25189 -0.14356,2.18496 -0.43066,2.79921c-0.34719,0.77116 -1.00317,1.3971 -1.96795,1.87783l-0.65599,-0.5959c0.9314,-0.40728 1.54899,-0.91304 1.85278,-1.51728c0.2871,-0.55416 0.43066,-1.4188 0.43066,-2.5939c0,-0.21699 -0.00168,-0.43565 -0.00503,-0.65599c-0.72776,0.07345 -1.46387,0.11016 -2.20832,0.11016c-0.28042,0 -0.52245,-0.00334 -0.72609,-0.01001l-0.06009,-0.7361zM107.18094,102.67817l0.52578,0.33049c-0.59422,1.07829 -0.90136,1.99466 -0.92139,2.74913l-0.67101,0.15023c-0.34051,-1.18846 -0.51077,-2.36355 -0.51077,-3.5253c0,-0.97146 0.21532,-2.36022 0.64597,-4.16627l0.76114,0.1953c-0.43065,1.69254 -0.64597,3.07463 -0.64597,4.14624c0,0.47071 0.04006,0.97313 0.12018,1.50727z" fill="#000000" stroke="none" stroke-width="1" stroke-miterlimit="10"></path><path d="M89.83704,114.51065c0.80455,0.06343 1.52896,0.09514 2.17327,0.09514c0.85462,0 1.73594,-0.05174 2.64397,-0.15523l0.17526,0.68603c-0.90135,0.25371 -1.76932,0.74612 -2.60392,1.47722l-0.57587,-0.44066c0.42064,-0.35386 0.83459,-0.65599 1.24187,-0.90636c-0.54749,0.0434 -1.04657,0.06509 -1.49725,0.06509c-0.56418,0 -1.07328,-0.02504 -1.5273,-0.07511l-0.03005,-0.74612zM95.60071,121.35095c-1.02822,0.1569 -1.97965,0.23534 -2.8543,0.23534c-1.21183,0 -2.14489,-0.18194 -2.79921,-0.54582c-0.59422,-0.32716 -0.89134,-0.78117 -0.89134,-1.36204c0,-0.57753 0.26707,-1.13839 0.80121,-1.68254l0.61592,0.39059c-0.42397,0.38391 -0.63595,0.77951 -0.63595,1.18679c0,0.80788 0.93641,1.21182 2.80922,1.21182c0.89802,0 1.85446,-0.09514 2.86932,-0.28543z" fill="#000000" stroke="none" stroke-width="1" stroke-miterlimit="10"></path><path d="M74.27293,130.97237h37.60324c1.89383,0 3.41848,1.52464 3.41848,3.41848v37.60323c0,1.89384 -1.52464,3.41848 -3.41848,3.41848h-37.60323c-1.89383,0 -3.41848,-1.52464 -3.41848,-3.41848v-37.60323c0,-1.89383 1.52465,-3.41848 3.41848,-3.41848z" fill="#cccccc" stroke="#000000" stroke-width="2" stroke-miterlimit="4"></path><path d="M95.23613,151.23951h1.24354l0.12519,5.00753c0.05008,0.0167 0.1363,0.05009 0.25871,0.10015c0.05008,0.01668 0.18639,0.06954 0.40895,0.15857c1.02376,0.38947 2.11708,0.90135 3.27994,1.53564l-0.75113,1.09331c-1.04045,-0.65098 -2.08925,-1.20459 -3.1464,-1.66083l-0.01668,0.24203c0,0.87354 -0.13631,1.48835 -0.40895,1.84445c-0.35609,0.45624 -1.06827,0.68436 -2.13655,0.68436c-1.14617,0 -2.06977,-0.28933 -2.77083,-0.86797c-0.46737,-0.40061 -0.70106,-0.88745 -0.70106,-1.46053c0,-0.62872 0.28932,-1.1573 0.86796,-1.58572c0.62872,-0.43399 1.41045,-0.65098 2.3452,-0.65098c0.41173,0 0.91248,0.06399 1.50226,0.19196zM95.35297,157.01486c-0.61759,-0.17248 -1.16007,-0.25872 -1.62744,-0.25872c-0.49519,0 -0.90971,0.09181 -1.24355,0.27542c-0.42286,0.21699 -0.63428,0.50631 -0.63428,0.86797c0,0.32827 0.20586,0.62038 0.61759,0.87632c0.4006,0.22812 0.90136,0.34218 1.50226,0.34218c0.95143,0 1.4188,-0.42007 1.40211,-1.26023l-0.01668,-0.84294zM86.85685,149.1614c0.55639,0.03339 1.03489,0.05008 1.4355,0.05008c0.6788,0 1.27136,-0.02504 1.77768,-0.07512c0.2615,-0.79008 0.52578,-1.84722 0.79286,-3.17144l1.3103,0.20031c-0.17804,0.87354 -0.4173,1.8194 -0.71775,2.8376c0.80677,-0.0779 1.73596,-0.24203 2.78754,-0.49241l0.05007,1.22684c-1.17399,0.24481 -2.24505,0.40616 -3.21317,0.48406c-0.92918,2.67625 -2.11429,5.07986 -3.55535,7.21085l-1.17677,-0.75113c1.28526,-1.69144 2.40083,-3.80572 3.3467,-6.34287c-0.78451,0.03339 -1.4661,0.05007 -2.04475,0.05007c-0.23925,0 -0.4785,-0.00556 -0.71774,-0.01668zM99.52592,152.28274c-0.957,-1.05715 -2.09204,-2.03083 -3.40513,-2.92106l0.87633,-0.90136c1.32977,0.82346 2.49264,1.76933 3.48858,2.8376z" fill="#000000" stroke="none" stroke-width="1" stroke-miterlimit="10"></path><path d="M73.7453,157.57455c-0.17694,-1.24187 -0.26539,-2.37357 -0.26539,-3.39511c0,-1.2185 0.21865,-2.66735 0.65598,-4.34654l0.77116,0.17526c-0.45068,1.67919 -0.67601,3.11135 -0.67601,4.29647c0,0.36722 0.02671,0.8012 0.08012,1.30195c0.15023,-0.27374 0.37557,-0.67768 0.67602,-1.21182l0.50075,0.35053c-0.63429,1.07829 -0.95143,1.90954 -0.95143,2.49375c0,0.10015 0.00334,0.18862 0.01001,0.2654l-0.8012,0.07011zM76.53449,150.96961c1.21183,-0.22367 2.53215,-0.3355 3.96096,-0.3355l0.0701,0.78618c-1.47222,-0.01003 -2.78752,0.10348 -3.94593,0.34051zM81.0563,157.10384c-0.64764,0.09014 -1.24521,0.1352 -1.7927,0.1352c-0.96813,0 -1.67586,-0.14021 -2.1232,-0.42063c-0.49742,-0.30713 -0.74612,-0.89635 -0.74612,-1.76766c0,-0.12018 0.00334,-0.23201 0.01002,-0.3355l0.77616,-0.09514c0,0.06343 -0.00334,0.15523 -0.01001,0.27541c-0.00333,0.06677 -0.00499,0.1085 -0.00499,0.12519c0,0.5575 0.1402,0.93474 0.42063,1.13171c0.27708,0.18361 0.78619,0.27541 1.5273,0.27541c0.48406,0 1.09831,-0.04506 1.84277,-0.1352l0.10015,0.81122z" fill="#000000" stroke="none" stroke-width="1" stroke-miterlimit="10"></path><path d="M90.20454,134.30888c0.20698,0.72776 0.41563,1.35037 0.62594,1.86782c0.77116,-0.59422 1.58238,-0.96312 2.43366,-1.10667c0.10015,-0.55083 0.17193,-1.06993 0.21533,-1.55733l0.77616,0.08012c0,0.0167 -0.00334,0.05343 -0.01001,0.11017c-0.01668,0.12686 -0.03003,0.24035 -0.04006,0.34051c-0.04006,0.35387 -0.11184,0.67602 -0.21533,0.96645c1.04157,0.04006 1.85278,0.3305 2.43366,0.87132c0.61426,0.56418 0.92139,1.30196 0.92139,2.21333c0,0.59757 -0.11685,1.1584 -0.35053,1.68252c0.36722,0.27041 0.67936,0.51579 0.93641,0.73612l-0.50576,0.64597l-0.12018,-0.12018l-0.14522,-0.14522c-0.08679,-0.09348 -0.19363,-0.20697 -0.32048,-0.34051c-0.09347,-0.09681 -0.15357,-0.16025 -0.18027,-0.19029c-0.50075,0.68103 -1.14338,1.02154 -1.9279,1.02154c-0.33718,0 -0.63095,-0.06843 -0.88133,-0.20531c-0.41729,-0.22367 -0.62594,-0.56418 -0.62594,-1.02154c0,-0.36388 0.14021,-0.66433 0.42063,-0.90135c0.28376,-0.25371 0.64931,-0.38057 1.09665,-0.38057c0.47405,0 1.00986,0.16692 1.60742,0.50075c0.15023,-0.39059 0.22534,-0.8179 0.22534,-1.28193c0,-1.02488 -0.44734,-1.75263 -1.34202,-2.18328c-0.34385,-0.16692 -0.78451,-0.26707 -1.32199,-0.30045c-0.37723,1.51227 -0.85963,2.74747 -1.44718,3.70558c0.03005,0.05342 0.14689,0.21699 0.35053,0.49074l-0.51578,0.58588c-0.06343,-0.08012 -0.14188,-0.19697 -0.23535,-0.35053l-0.05008,-0.08012c-0.62761,0.79119 -1.23018,1.18678 -1.80772,1.18678c-0.35386,0 -0.64097,-0.17026 -0.8613,-0.51077c-0.20364,-0.32048 -0.30546,-0.73777 -0.30546,-1.25188c0,-0.91137 0.42063,-1.81439 1.2619,-2.70907c-0.30713,-0.72776 -0.56418,-1.4138 -0.77116,-2.05811zM96.04332,139.98242c-0.50409,-0.32716 -0.93808,-0.49074 -1.30196,-0.49074c-0.45736,0 -0.73778,0.17025 -0.84127,0.51076c-0.00668,0.00668 -0.01001,0.02338 -0.01001,0.05008v0.07511c0.02003,0.40728 0.30045,0.61091 0.84127,0.61091c0.49074,0 0.92806,-0.25204 1.31197,-0.75613zM90.5751,137.30339l-0.01002,0.01002c-0.00668,0.00668 -0.01669,0.01335 -0.03005,0.02003c0.00668,0 0.01002,0.00501 0.01002,0.01501c-0.51411,0.66433 -0.77116,1.34703 -0.77116,2.04808c0,0.68437 0.1569,1.02654 0.47071,1.02654c0.36054,0 0.81957,-0.36555 1.37707,-1.09665c-0.35386,-0.61425 -0.70272,-1.2886 -1.04657,-2.02304zM93.12894,135.70599c-0.6877,0.15023 -1.3704,0.51244 -2.04808,1.08664c0.27708,0.63095 0.59757,1.25689 0.96144,1.87783c0.444,-0.7745 0.80621,-1.76265 1.08664,-2.96446z" fill="#000000" stroke="none" stroke-width="1" stroke-miterlimit="10"></path><path d="M105.03771,151.49539c0.65432,-0.07011 1.32031,-0.17193 1.998,-0.30546l0.01002,-0.34051c0.02003,-0.661 0.04006,-1.13838 0.06009,-1.43215l0.75113,0.0701l-0.02003,0.27542c-0.03338,0.60091 -0.05342,1.04491 -0.06009,1.33201l0.4707,0.48573l-0.0751,0.10015c-0.16358,0.24036 -0.30714,0.45902 -0.43066,0.65598c-0.00668,0.07678 -0.01001,0.22367 -0.01001,0.44066c1.17844,-1.25856 2.31015,-1.88784 3.39511,-1.88784c0.68436,0 1.22183,0.29711 1.61242,0.89134c0.34051,0.5308 0.51077,1.2185 0.51077,2.06311c0,0.66767 -0.10181,1.2836 -0.30545,1.84778c0.43399,0.26373 0.78618,0.51577 1.05658,0.75614l-0.50576,0.67101c-0.22033,-0.22367 -0.35219,-0.35387 -0.3956,-0.39059c-0.27375,-0.22701 -0.41061,-0.34385 -0.41061,-0.35053c-0.02003,-0.0267 -0.0384,-0.04006 -0.05509,-0.04006c-0.00335,0 -0.01003,0.01002 -0.02004,0.03005c-0.13353,0.28042 -0.38224,0.52746 -0.74612,0.74112c-0.3739,0.21699 -0.73611,0.32549 -1.08664,0.32549c-0.43399,0 -0.80955,-0.11184 -1.12669,-0.33551c-0.38391,-0.27041 -0.57587,-0.59923 -0.57587,-0.98648c0,-0.41729 0.18361,-0.74946 0.55083,-0.9965c0.27708,-0.18361 0.61593,-0.27541 1.01654,-0.27541c0.4607,0 1.01152,0.1569 1.65248,0.47071c0.12018,-0.44066 0.18026,-0.90636 0.18026,-1.3971c0,-0.64764 -0.11016,-1.17344 -0.33049,-1.57738c-0.26707,-0.4874 -0.65265,-0.7311 -1.15674,-0.7311c-0.95477,0 -2.04141,0.69272 -3.25991,2.07813c0.01001,1.27525 0.04172,2.60058 0.09515,3.97598h-0.76115l-0.01001,-0.5959c-0.02671,-0.9748 -0.04006,-1.82274 -0.04006,-2.54382l-0.24538,0.30044c-0.6009,0.71775 -0.99817,1.20683 -1.19179,1.46722l-0.56084,-0.62594c0.79787,-0.91805 1.46387,-1.66083 1.99801,-2.22835v-0.25538v-0.27542c0,-0.49408 0.00334,-0.83958 0.01001,-1.03655c-0.49074,0.13353 -1.08163,0.26039 -1.77267,0.38057l-0.21532,-0.75114zM112.01821,155.93705c-0.51744,-0.31381 -0.9748,-0.47071 -1.37206,-0.47071c-0.58755,0 -0.88133,0.20531 -0.88133,0.61593c0,0.14355 0.06176,0.27708 0.18528,0.40061c0.19029,0.19028 0.45735,0.28543 0.8012,0.28543c0.49742,0 0.91972,-0.27708 1.26691,-0.83125z" fill="#000000" stroke="none" stroke-width="1" stroke-miterlimit="10"></path><path d="M93.01682,172.23627c2.30347,-0.31715 3.4552,-1.36205 3.4552,-3.13471c0,-1.09832 -0.4607,-1.89785 -1.38208,-2.3986c-0.39727,-0.20364 -0.85962,-0.3305 -1.38708,-0.38058c-0.16358,1.74596 -0.5358,3.21984 -1.11668,4.42165c-0.56418,1.16843 -1.16675,1.75264 -1.80772,1.75264c-0.36054,0 -0.70105,-0.19196 -1.02154,-0.57587c-0.50743,-0.61759 -0.76115,-1.332 -0.76115,-2.14322c0,-1.09164 0.42064,-2.04809 1.2619,-2.86932c0.84127,-0.82124 1.9279,-1.23185 3.2599,-1.23185c0.93474,0 1.73427,0.23535 2.39861,0.70606c0.94476,0.65766 1.41713,1.56402 1.41713,2.71909c0,2.1232 -1.27191,3.41514 -3.81574,3.87583zM92.91166,166.3424c-0.72109,0.11016 -1.34201,0.38057 -1.8628,0.81123c-0.84794,0.7044 -1.27192,1.58572 -1.27192,2.64398c0,0.66767 0.18028,1.20849 0.54082,1.62244c0.1569,0.17693 0.30879,0.2654 0.45568,0.2654c0.32382,0 0.69604,-0.43399 1.11668,-1.30196c0.52746,-1.08163 0.86797,-2.42866 1.02154,-4.04109z" fill="#000000" stroke="none" stroke-width="1" stroke-miterlimit="10"></path><path d="M74.27293,182.36346h37.60324c1.89383,0 3.41848,1.52464 3.41848,3.41848v37.60324c0,1.89383 -1.52464,3.41848 -3.41848,3.41848h-37.60323c-1.89383,0 -3.41848,-1.52464 -3.41848,-3.41848v-37.60324c0,-1.89383 1.52465,-3.41848 3.41848,-3.41848z" fill="#cccccc" stroke="#000000" stroke-width="2" stroke-miterlimit="4"></path><path d="M85.80527,203.76563c1.28526,-0.47293 2.43144,-0.8791 3.43851,-1.2185c-0.70105,-1.6191 -1.20459,-2.75136 -1.51061,-3.39678l1.23519,-0.50075c0.36722,0.77338 0.87354,1.93068 1.51895,3.47188c2.8376,-0.93474 4.80445,-1.40211 5.90054,-1.40211c0.96813,0 1.75541,0.21143 2.36189,0.63429c0.75113,0.49519 1.1267,1.21294 1.1267,2.15324c0,2.14767 -1.90564,3.33279 -5.71693,3.55534l-0.5091,-1.20181c3.26046,-0.11684 4.89069,-0.90135 4.89069,-2.35354c0,-1.1406 -0.7567,-1.71091 -2.27008,-1.71091c-0.957,0 -2.74301,0.45624 -5.35806,1.36873c1.10165,2.73745 2.07256,5.48882 2.91272,8.25409l-1.28527,0.44233c-0.83459,-2.82647 -1.78602,-5.57783 -2.85429,-8.25409c-0.97925,0.36722 -2.0976,0.81233 -3.35505,1.33534zM94.35146,200.47737c-0.93474,-0.89579 -1.92512,-1.6358 -2.97113,-2.22001l0.83458,-0.90135c1.06271,0.54527 2.09483,1.26858 3.09633,2.16993z" fill="#000000" stroke="none" stroke-width="1" stroke-miterlimit="10"></path><path d="M90.4449,185.68495c-0.25038,1.1317 -0.37557,2.14657 -0.37557,3.04458c0,0.21032 0.00334,0.39392 0.01002,0.55083c0.92807,-1.7059 2.11317,-2.6857 3.55534,-2.93942c-0.00668,-0.24704 -0.03338,-0.63095 -0.08012,-1.15174l-0.02003,-0.28543h0.81122l0.02003,0.27542l0.01002,0.22534l0.03005,0.38057l0.01001,0.23535l0.02004,0.2654c0.69772,0.05342 1.26858,0.24203 1.71258,0.56585c0.67768,0.48073 1.01653,1.15006 1.01653,2.00802c0,1.01486 -0.39726,1.75431 -1.19179,2.21834c-0.47071,0.27708 -1.06159,0.41062 -1.77267,0.4006c-0.28042,0.84461 -0.77951,1.51394 -1.49725,2.00802l-0.68603,-0.51076c0.65432,-0.38057 1.12503,-0.92472 1.41213,-1.63245c-0.74111,-0.22367 -1.36205,-0.63763 -1.8628,-1.24187l0.47071,-0.5308c0.44066,0.54415 0.96311,0.91304 1.56735,1.10666c0.08679,-0.38391 0.1302,-0.92139 0.1302,-1.61243c0,-0.50075 -0.02003,-1.18678 -0.06009,-2.05809c-0.888,0.16358 -1.71758,0.74445 -2.48874,1.74262c-0.64431,0.83793 -0.96645,1.60074 -0.96645,2.28844c0,0.25371 0.03172,0.52245 0.09515,0.80621l-0.77116,0.10516c-0.16358,-1.06827 -0.24537,-2.12152 -0.24537,-3.15975c0,-1.12169 0.12019,-2.20832 0.36055,-3.2599l0.78618,0.15523zM94.46595,186.9869c0.02671,0.67768 0.04006,1.32032 0.04006,1.9279c0,0.70773 -0.04673,1.33367 -0.14021,1.87783c0.6009,-0.01335 1.07161,-0.18529 1.41212,-0.51578c0.36388,-0.36054 0.54582,-0.83292 0.54582,-1.41714c0,-1.105 -0.61926,-1.72926 -1.85779,-1.87282z" fill="#000000" stroke="none" stroke-width="1" stroke-miterlimit="10"></path><path d="M76.70264,209.60161c-1.3053,-1.28527 -1.95795,-2.82091 -1.95795,-4.60693c0,-1.76933 0.65265,-3.29662 1.95795,-4.58189h0.8012c-1.32533,1.3053 -1.98799,2.84094 -1.98799,4.60693c0,1.7493 0.66266,3.27659 1.98799,4.58189z" fill="#000000" stroke="none" stroke-width="1" stroke-miterlimit="10"></path><path d="M108.56635,209.60161c1.32533,-1.3053 1.98799,-2.8376 1.98799,-4.59691c0,-1.74596 -0.66266,-3.27659 -1.98799,-4.5919h0.8012c1.3053,1.28527 1.95795,2.8159 1.95795,4.5919c0,1.77935 -0.65265,3.31165 -1.95795,4.59691z" fill="#000000" stroke="none" stroke-width="1" stroke-miterlimit="10"></path><path d="M92.20059,216.33641h0.78117v2.1933c0.81789,-0.06009 1.60408,-0.19697 2.35855,-0.41062l0.23535,0.76114c-0.74111,0.16358 -1.60575,0.28709 -2.59391,0.37055v2.62395c0.85462,0.22033 1.85279,0.66434 2.99451,1.33201l-0.50075,0.69604c-0.63095,-0.43732 -1.29861,-0.79953 -2.00301,-1.08664c-0.09347,-0.03672 -0.1953,-0.07678 -0.30546,-0.12018c-0.11016,-0.0434 -0.17193,-0.06844 -0.18528,-0.07512v0.3305c0,0.69771 -0.16858,1.16175 -0.50576,1.3921c-0.21031,0.14021 -0.54081,0.227 -0.99149,0.26039l-0.08513,0.01002c-0.02671,0 -0.04673,-0.00166 -0.06009,-0.00499c-0.05342,0 -0.11852,-0.00334 -0.1953,-0.01001c-0.58088,-0.01001 -1.10666,-0.17024 -1.57737,-0.48073c-0.444,-0.30045 -0.666,-0.65265 -0.666,-1.05659c0,-0.42731 0.21866,-0.76782 0.65599,-1.02154c0.48073,-0.2871 1.07495,-0.43064 1.78268,-0.43064c0.23034,0 0.51744,0.02336 0.86129,0.0701v-5.34303zM92.20059,222.40554c-0.34385,-0.06677 -0.6443,-0.10016 -0.90136,-0.10016c-0.45068,0 -0.82958,0.07178 -1.13671,0.21533c-0.29377,0.13019 -0.44066,0.30045 -0.44066,0.51077c0,0.19028 0.09514,0.36054 0.28543,0.51077c0.28376,0.23369 0.666,0.35053 1.14673,0.35053c0.69772,0 1.04658,-0.29378 1.04658,-0.88133z" fill="#000000" stroke="none" stroke-width="1" stroke-miterlimit="10"></path><path d="M74.27293,233.75455h37.60324c1.89383,0 3.41848,1.52464 3.41848,3.41848v37.60324c0,1.89384 -1.52464,3.41848 -3.41848,3.41848h-37.60323c-1.89383,0 -3.41848,-1.52464 -3.41848,-3.41848v-37.60324c0,-1.89383 1.52465,-3.41848 3.41848,-3.41848z" fill="#cccccc" stroke="#000000" stroke-width="2" stroke-miterlimit="4"></path><path d="M86.69828,252.6196c1.17955,-0.13353 2.32572,-0.31993 3.43851,-0.55918l0.01668,-0.53413l0.01668,-0.5091l0.03336,-0.84294l0.01668,-0.4924l0.01669,-0.54248l1.26857,0.01668l-0.01668,0.5091l-0.01669,0.44234l-0.03339,0.76782l-0.01668,0.48406l-0.01668,0.55918l1.02654,0.80955l-0.17527,0.20031c-0.47293,0.5564 -0.76783,0.91527 -0.88466,1.07662c-0.01112,0.1391 -0.01668,0.30045 -0.01668,0.48406v0.15023v0.16692c1.73038,-1.35204 3.39399,-2.02805 4.99084,-2.02805c1.17399,0 2.16437,0.37 2.97114,1.11c0.86797,0.80121 1.30196,1.84444 1.30196,3.12971c0,2.86542 -1.9891,4.71543 -5.96731,5.55002l-0.85962,-1.17677c3.61655,-0.66767 5.42482,-2.13098 5.42482,-4.38994c0,-0.89023 -0.2615,-1.61354 -0.78451,-2.16993c-0.55083,-0.58421 -1.28804,-0.87632 -2.21166,-0.87632c-1.41324,0 -2.95722,0.70105 -4.63197,2.10316c-0.01112,0 -0.02226,0.00557 -0.0334,0.01669c-0.06677,0.05564 -0.14188,0.12518 -0.22534,0.20864c0,2.88768 0.02504,5.06874 0.07512,6.54318h-1.30196l-0.01668,-0.75114v-0.97646c-0.02227,-1.39099 -0.0334,-2.14768 -0.0334,-2.27009c0,-0.5397 0.00556,-0.98481 0.01668,-1.33534c-0.62316,0.63986 -1.51895,1.64692 -2.68738,3.02121l-0.93474,-0.96812c1.26301,-1.36316 2.47038,-2.56497 3.62211,-3.60542v-0.39226l0.01668,-0.56752c0,-0.13353 0.00557,-0.51189 0.01669,-1.13504c0.00556,-0.30045 0.01112,-0.51466 0.01668,-0.64264c-0.8624,0.24481 -1.88339,0.48963 -3.06294,0.73444l-0.35887,-1.31865z" fill="#000000" stroke="none" stroke-width="1" stroke-miterlimit="10"></path><path d="M73.55,253.46637c0.48073,0.04006 1.15674,0.06009 2.02805,0.06009c0.23703,-0.54415 0.41896,-1.04658 0.54582,-1.50727l0.76114,0.21533l-0.0751,0.20531c-0.14355,0.39392 -0.2871,0.73945 -0.43066,1.03656c0.70105,-0.03339 1.46721,-0.14188 2.29846,-0.32549l0.10016,0.70606c-0.80455,0.16024 -1.71258,0.2654 -2.7241,0.31547c-0.28376,0.5742 -0.60258,1.12169 -0.95644,1.64247c0.50409,-0.43065 0.98649,-0.64597 1.44719,-0.64597c0.72109,0 1.20013,0.43732 1.43716,1.31197c0.74446,-0.32382 1.53397,-0.62761 2.36856,-0.91137l0.38057,0.67601c-0.99817,0.29377 -1.87115,0.59757 -2.61894,0.91138c0.0434,0.29712 0.07177,0.79286 0.08513,1.48724l-0.77116,0.0651c0,-0.49741 -0.01001,-0.90469 -0.03005,-1.22183c-1.18178,0.59756 -1.77267,1.12169 -1.77267,1.57236c0,0.56752 0.83292,0.85128 2.49876,0.85128c0.63095,0 1.28861,-0.04507 1.97297,-0.1352l0.06009,0.74612c-0.77116,0.08346 -1.47555,0.12519 -2.11318,0.12519c-2.11986,0 -3.17979,-0.51243 -3.17979,-1.53731c0,-0.77116 0.80956,-1.54066 2.42866,-2.30847c-0.1736,-0.65765 -0.46737,-0.98649 -0.88133,-0.98649c-0.68436,0 -1.5757,0.73444 -2.67402,2.20331l-0.5959,-0.44066c0.84127,-1.0883 1.549,-2.21334 2.12319,-3.37509c-0.68436,0 -1.25856,-0.01335 -1.72259,-0.04006z" fill="#000000" stroke="none" stroke-width="1" stroke-miterlimit="10"></path><path d="M88.87754,244.24183c1.09498,-2.44034 2.38025,-5.05928 3.8558,-7.85682l0.79119,0.37056c-0.83125,1.4188 -1.58071,2.80922 -2.24838,4.17127c0.53748,-0.50409 1.04657,-0.75614 1.52729,-0.75614c0.54415,0 0.90302,0.27374 1.07662,0.82123c0.08679,0.27374 0.1352,0.76114 0.14522,1.4622c0.01001,0.87465 0.24536,1.31197 0.70606,1.31197c0.65766,0 1.27358,-0.71274 1.84778,-2.13822l0.65599,0.60091c-0.74779,1.56569 -1.58906,2.34854 -2.5238,2.34854c-0.96144,0 -1.44217,-0.666 -1.44217,-1.99801v-0.08012c0,-1.07495 -0.21198,-1.61244 -0.63595,-1.61244c-0.90803,0 -1.90954,1.23019 -3.00452,3.69056z" fill="#000000" stroke="none" stroke-width="1" stroke-miterlimit="10"></path><path d="M105.18292,255.89h8.3676v0.82124h-8.3676z" fill="#000000" stroke="none" stroke-width="1" stroke-miterlimit="10"></path><path d="M89.00579,271.61834c0.62094,-0.56084 1.33868,-0.84127 2.15324,-0.84127c0.5742,0 1.28861,0.27375 2.14323,0.82124c0.7044,0.444 1.23519,0.666 1.59239,0.666c0.75113,0 1.48223,-0.35554 2.1933,-1.06661v0.95144c-0.62094,0.56084 -1.33868,0.84126 -2.15324,0.84126c-0.60758,0 -1.32199,-0.26707 -2.14322,-0.8012c-0.7044,-0.45736 -1.23853,-0.68603 -1.60241,-0.68603c-0.74446,0 -1.47221,0.35553 -2.18328,1.0666z" fill="#000000" stroke="none" stroke-width="1" stroke-miterlimit="10"></path><path d="M23.16671,79.58127h37.60324c1.89384,0 3.41848,1.52464 3.41848,3.41848v37.60324c0,1.89383 -1.52464,3.41848 -3.41848,3.41848h-37.60323c-1.89383,0 -3.41848,-1.52464 -3.41848,-3.41848v-37.60324c0,-1.89383 1.52464,-3.41848 3.41848,-3.41848z" fill="#cccccc" stroke="#000000" stroke-width="2" stroke-miterlimit="4"></path><path d="M36.04274,97.21947c0.46737,0.03338 0.92917,0.05008 1.38542,0.05008c0.68436,0 1.3409,-0.02226 1.96963,-0.06677l0.0334,-0.37556l0.05007,-0.53414c0.02782,-0.28376 0.06677,-0.62872 0.11685,-1.03489c0.02782,-0.25594 0.04451,-0.41729 0.05007,-0.48406l1.26858,0.08346c-0.10572,0.84015 -0.19197,1.5885 -0.25873,2.24504c1.62467,-0.17248 3.24934,-0.48128 4.874,-0.92639l0.13354,1.17677c-1.56902,0.39504 -3.27716,0.68714 -5.12438,0.87631c-0.07234,0.67324 -0.11963,1.40767 -0.14188,2.20332c0.76226,-0.27263 1.65805,-0.45624 2.68737,-0.55083c0.09459,-0.30045 0.19752,-0.67045 0.3088,-1.11l1.26024,0.2921c-0.03895,0.17804 -0.12797,0.45902 -0.26707,0.84293c1.18512,0.15023 2.12542,0.49519 2.82091,1.03489c0.99038,0.79008 1.48556,1.82218 1.48556,3.09632c0,1.40211 -0.59255,2.54272 -1.77767,3.42182c-0.92361,0.68436 -2.1894,1.1406 -3.79738,1.36872l-0.73445,-1.13505c1.40767,-0.15023 2.53158,-0.48962 3.37174,-1.01819c1.06827,-0.66767 1.60241,-1.55235 1.60241,-2.654c0,-1.12391 -0.49518,-1.98354 -1.48557,-2.57887c-0.50075,-0.30602 -1.11001,-0.50075 -1.82775,-0.58422c-0.8791,2.06978 -2.03639,3.78069 -3.47189,5.13272c0.05007,0.51189 0.14744,1.04045 0.2921,1.58572l-1.23519,0.45903c-0.02782,-0.15579 -0.08902,-0.53136 -0.18361,-1.12669c-0.95143,0.67324 -1.84722,1.00985 -2.68737,1.00985c-1.01264,0 -1.51895,-0.59256 -1.51895,-1.77767c0,-1.60797 0.85962,-3.06016 2.57888,-4.35655c0.32827,-0.23925 0.77339,-0.51188 1.33534,-0.8179c0.01668,-0.76226 0.06676,-1.64136 0.15022,-2.6373c-0.85128,0.06677 -1.66362,0.10015 -2.437,0.10015c-0.30045,0 -0.5397,-0.00556 -0.71775,-0.01668l-0.10849,-1.19346zM39.13907,102.14354c-0.38947,0.23368 -0.79286,0.57031 -1.21016,1.00986c-0.89023,0.90135 -1.36873,1.78325 -1.43549,2.64565c0,0.07789 -0.00834,0.13631 -0.02502,0.17526c0.01668,0.05564 0.02502,0.12241 0.02502,0.2003c0,0.36722 0.16413,0.55083 0.4924,0.55083c0.71775,0 1.48557,-0.37557 2.30347,-1.1267c-0.08346,-0.89023 -0.13354,-2.04197 -0.15022,-3.4552zM42.71111,100.85827c-0.82903,0.11684 -1.61632,0.32827 -2.36189,0.63429c0,1.28526 0.02503,2.30068 0.07511,3.04625c0.92361,-1.02933 1.68587,-2.25618 2.28678,-3.68054z" fill="#000000" stroke="none" stroke-width="1" stroke-miterlimit="10"></path><path d="M26.13934,103.80489c-0.49407,1.41546 -1.07662,2.1232 -1.74762,2.1232c-0.33384,0 -0.67102,-0.19196 -1.01153,-0.57587c-0.46737,-0.51411 -0.78952,-1.30696 -0.96645,-2.37857c-0.16358,-0.98481 -0.24537,-2.23838 -0.24537,-3.76067h0.85128c-0.01,1.99634 0.12019,3.47357 0.39059,4.43168c0.26373,0.92807 0.59089,1.39208 0.98148,1.39208c0.36388,0 0.7094,-0.59422 1.03655,-1.78267zM29.35919,104.05026c-0.51411,-1.45552 -1.23185,-2.79921 -2.15324,-4.03106l0.72608,-0.35554c0.92472,1.1317 1.66918,2.45036 2.23336,3.95596z" fill="#000000" stroke="none" stroke-width="1" stroke-miterlimit="10"></path><path d="M42.3432,83.74904c-0.75113,-0.46737 -1.68754,-0.86964 -2.80923,-1.20682l0.38057,-0.70105c1.02822,0.30379 1.98132,0.69772 2.85931,1.18178zM37.97663,85.22626c1.81607,-0.61425 3.09465,-0.92139 3.83577,-0.92139c0.75113,0 1.3053,0.23869 1.6625,0.71608c0.26039,0.35386 0.39059,0.80955 0.39059,1.36705c0,2.15991 -1.19013,3.58874 -3.57037,4.28645l-0.54582,-0.72108c2.18996,-0.48073 3.28494,-1.66418 3.28494,-3.55035c0,-0.92139 -0.42397,-1.38208 -1.27191,-1.38208c-0.66767,0 -1.80938,0.3355 -3.42515,1.00651z" fill="#000000" stroke="none" stroke-width="1" stroke-miterlimit="10"></path><path d="M58.70367,99.6436c-0.80121,-0.47738 -1.68588,-0.86631 -2.654,-1.16676l0.40561,-0.63596c0.89468,0.25038 1.79438,0.62261 2.69907,1.11668zM55.06319,100.64009c1.30196,-0.08012 2.66901,-0.23034 4.10117,-0.45067l0.53581,0.60591c-0.56752,0.55751 -1.32366,1.35036 -2.26842,2.37857c0.30045,-0.11016 0.5575,-0.16524 0.77116,-0.16524c0.59089,0 0.89134,0.3355 0.90135,1.00651l0.02004,0.87131c0.01,0.2704 0.10847,0.43065 0.29543,0.48072c0.13688,0.04006 0.3522,0.06009 0.64598,0.06009c0.45401,0 0.99817,-0.05842 1.63246,-0.17526l0.07011,0.82124c-0.51745,0.07678 -1.00151,0.11517 -1.45218,0.11517c-0.67101,0 -1.14338,-0.06843 -1.41713,-0.20531c-0.32716,-0.16358 -0.50243,-0.46737 -0.5258,-0.91137l-0.03005,-0.80121c-0.01,-0.42397 -0.1669,-0.63596 -0.47071,-0.63596c-0.55083,0 -1.63412,0.89468 -3.24989,2.68404l-0.61593,-0.56085c1.40545,-1.35537 2.93275,-2.96613 4.58189,-4.83227c-1.11501,0.21699 -2.22167,0.39225 -3.31999,0.52578l-0.20531,-0.81122z" fill="#000000" stroke="none" stroke-width="1" stroke-miterlimit="10"></path><path d="M39.98771,113.75952h0.76114v1.6625c0.67101,-0.11016 1.25187,-0.23368 1.74262,-0.37056l0.07011,0.71608c-0.7311,0.18027 -1.33534,0.29711 -1.81273,0.35052v1.53732c0.63762,-0.21031 1.28693,-0.31548 1.94793,-0.31548c0.67768,0 1.2452,0.12019 1.70256,0.36055c0.67101,0.34051 1.00652,0.8663 1.00652,1.57737c0,1.51561 -1.18344,2.34019 -3.55034,2.47372l-0.36055,-0.74111c0.75447,0 1.39878,-0.09847 1.93291,-0.29544c0.76449,-0.29712 1.14672,-0.76616 1.14672,-1.40712c0,-0.87465 -0.64597,-1.31198 -1.93791,-1.31198c-0.61425,0 -1.24354,0.11351 -1.88784,0.34052v2.52379c0,0.6009 -0.26707,0.90136 -0.8012,0.90136c-0.02003,0 -0.04507,-0.00334 -0.07512,-0.01002c-0.0434,0 -0.07678,-0.00168 -0.10015,-0.00503c-0.46737,0 -0.92138,-0.17359 -1.36205,-0.52078c-0.39059,-0.30713 -0.58588,-0.64264 -0.58588,-1.00652c0,-0.87131 0.72109,-1.62911 2.16325,-2.27342v-1.7326c-0.57753,0.06677 -1.19347,0.10015 -1.84779,0.10015v-0.7261h0.11518c0.65765,0 1.23519,-0.02504 1.7326,-0.07511v-1.75263zM39.98771,118.65188c-0.92139,0.42064 -1.38208,0.93641 -1.38208,1.54733c0,0.16358 0.07512,0.32048 0.22534,0.47071c0.24036,0.24036 0.50576,0.36054 0.79619,0.36054c0.24036,0 0.36055,-0.12185 0.36055,-0.36556zM45.29069,116.74401c-0.6176,-0.66767 -1.33201,-1.25856 -2.14323,-1.77267l0.49074,-0.54582c0.77116,0.45736 1.50727,1.02488 2.20832,1.70257z" fill="#000000" stroke="none" stroke-width="1" stroke-miterlimit="10"></path><path d="M23.16671,130.97237h37.60324c1.89384,0 3.41848,1.52464 3.41848,3.41848v37.60323c0,1.89384 -1.52464,3.41848 -3.41848,3.41848h-37.60323c-1.89383,0 -3.41848,-1.52464 -3.41848,-3.41848v-37.60323c0,-1.89383 1.52464,-3.41848 3.41848,-3.41848z" fill="#cccccc" stroke="#000000" stroke-width="2" stroke-miterlimit="4"></path><path d="M35.64214,148.98613c0.80677,0.07234 1.58015,0.10849 2.32015,0.10849c0.42842,0 0.91805,-0.01947 1.46888,-0.05842c0.28376,-1.10165 0.51744,-2.11428 0.70105,-3.0379l1.35204,0.23368c-0.12241,0.52301 -0.35053,1.42437 -0.68436,2.70408c1.05158,-0.12797 1.97519,-0.28655 2.77083,-0.47573l0.08346,1.26023c-1.02376,0.18918 -2.0837,0.32549 -3.17979,0.40895c-1.2185,4.10061 -2.44813,7.39445 -3.68888,9.88153l-1.33534,-0.58421c1.38542,-2.44257 2.60948,-5.51107 3.67219,-9.20552c-0.62872,0.03339 -1.28248,0.05008 -1.96128,0.05008c-0.2615,0 -0.7567,-0.01113 -1.48557,-0.0334l-0.0334,-1.25189zM49.17918,159.44354c-1.23519,0.16135 -2.2673,0.24203 -3.09633,0.24203c-1.73595,0 -2.97391,-0.3088 -3.71392,-0.92639c-0.61203,-0.52857 -1.02098,-1.39933 -1.22684,-2.61226l1.21016,-0.5091c0.12241,1.11279 0.45902,1.85279 1.00985,2.22001c0.51188,0.3394 1.38542,0.5091 2.62061,0.5091c0.80121,0 1.84166,-0.08345 3.12136,-0.25037zM42.0184,152.18262c1.914,-0.62316 3.97543,-0.9264 6.18431,-0.90971v1.26858h-0.06677c-2.08091,0 -4.05332,0.27264 -5.91724,0.8179z" fill="#000000" stroke="none" stroke-width="1" stroke-miterlimit="10"></path><path d="M21.7878,150.96961c0.60424,0.05007 1.31198,0.07512 2.1232,0.07512h0.1953l0.06009,-0.30045c0.10683,-0.51745 0.19195,-0.99149 0.25538,-1.42214l0.77116,0.11016c-0.10683,0.58755 -0.21032,1.11501 -0.31047,1.58238c1.07829,-0.05007 2.12487,-0.18028 3.13973,-0.39059l0.09514,0.73611c-1.05158,0.19028 -2.18662,0.31047 -3.40512,0.36055c-0.17026,0.72442 -0.4173,1.57237 -0.74112,2.54383c0.99483,-0.65766 2.01469,-0.98648 3.0596,-0.98648c0.60424,0 1.10334,0.11684 1.49726,0.35053c0.59423,0.33718 0.89134,0.84961 0.89134,1.53731c0,1.6358 -1.6141,2.50376 -4.84229,2.60392l-0.35052,-0.72609c2.92106,-0.05342 4.38159,-0.68269 4.38159,-1.88784c0,-0.81456 -0.56752,-1.22184 -1.70256,-1.22184c-0.60424,0 -1.23686,0.16692 -1.89785,0.50075c-0.59756,0.30713 -1.09332,0.63596 -1.48724,0.98649l-0.65598,-0.47071c0.44066,-1.07829 0.79954,-2.14489 1.07663,-3.19982c-0.96813,0 -1.67586,-0.01336 -2.1232,-0.04006l-0.03005,-0.74112z" fill="#000000" stroke="none" stroke-width="1" stroke-miterlimit="10"></path><path d="M37.94158,135.83619c2.2634,-0.61426 3.9693,-0.92139 5.11769,-0.92139c0.78785,0 1.43383,0.1953 1.93792,0.58589c0.62094,0.47738 0.9314,1.14673 0.9314,2.00802c0,1.08497 -0.5091,1.93624 -1.5273,2.55384c-0.91471,0.55083 -2.1933,0.88299 -3.83577,0.9965l-0.4006,-0.80121c3.26825,-0.14355 4.90238,-1.05992 4.90238,-2.74913c0,-0.59422 -0.19196,-1.06327 -0.57587,-1.40712c-0.35386,-0.31381 -0.84961,-0.4707 -1.48723,-0.4707c-1.14505,0 -2.71241,0.3355 -4.70208,1.00651z" fill="#000000" stroke="none" stroke-width="1" stroke-miterlimit="10"></path><path d="M53.86138,150.95457c2.56052,-0.35387 5.16945,-0.63429 7.82678,-0.84126l0.0701,0.73611c-1.19847,0.07344 -2.13822,0.35386 -2.81924,0.84126c-1.0182,0.74112 -1.5273,1.62745 -1.5273,2.659c0,0.79453 0.26373,1.37874 0.79119,1.75264c0.52079,0.3572 1.36372,0.57252 2.5288,0.64597l0.06009,0.85129c-2.80756,-0.12352 -4.21133,-1.17344 -4.21133,-3.14974c0,-1.36205 0.75447,-2.51045 2.2634,-3.44519c-1.7493,0.23369 -3.35504,0.47238 -4.81724,0.71608z" fill="#000000" stroke="none" stroke-width="1" stroke-miterlimit="10"></path><path d="M44.42939,172.89727c-1.09164,0.13688 -2.03806,0.20531 -2.83927,0.20531c-1.03823,0 -1.84444,-0.09848 -2.41864,-0.29545c-0.80788,-0.27708 -1.21182,-0.8012 -1.21182,-1.57236c0,-1.02488 0.8062,-1.93792 2.41863,-2.73912c-0.48072,-1.13838 -0.84627,-2.26006 -1.09665,-3.36506l0.83125,-0.16526c0.21366,1.08163 0.53247,2.15158 0.95644,3.20983c0.74446,-0.31381 1.67419,-0.62762 2.78919,-0.94142l0.35553,0.75114c-3.62879,0.87131 -5.44318,1.93457 -5.44318,3.18979c0,0.77784 0.87131,1.16676 2.61393,1.16676c0.85795,0 1.82608,-0.08513 2.90437,-0.25538z" fill="#000000" stroke="none" stroke-width="1" stroke-miterlimit="10"></path><path d="M23.16671,182.36346h37.60324c1.89384,0 3.41848,1.52464 3.41848,3.41848v37.60324c0,1.89383 -1.52464,3.41848 -3.41848,3.41848h-37.60323c-1.89383,0 -3.41848,-1.52464 -3.41848,-3.41848v-37.60324c0,-1.89383 1.52464,-3.41848 3.41848,-3.41848z" fill="#cccccc" stroke="#000000" stroke-width="2" stroke-miterlimit="4"></path><path d="M42.51915,197.48955l0.06676,2.49542c1.35204,-0.08902 2.78754,-0.26707 4.30649,-0.53414l0.10015,1.18511c-1.25189,0.18918 -2.7152,0.34775 -4.38994,0.47572l0.05007,2.11986c1.31865,-0.12241 2.50377,-0.28098 3.55535,-0.47572l0.08346,1.17677c-1.14061,0.19474 -2.34242,0.33662 -3.60543,0.42564l0.07512,2.93775c0.00556,0.00556 0.03616,0.0167 0.0918,0.0334c0.05007,0.01668 0.09737,0.03616 0.14188,0.05842c0.11684,0.04451 0.21421,0.08345 0.2921,0.11684c0.04451,0.02227 0.13632,0.05565 0.27542,0.10015c1.20181,0.50632 2.41474,1.16286 3.63881,1.96963l-0.8179,1.14338c-1.07384,-0.80677 -2.11707,-1.44384 -3.12971,-1.9112c-0.02782,-0.01112 -0.06677,-0.03059 -0.11685,-0.05842c-0.03339,-0.01668 -0.05842,-0.02782 -0.07511,-0.0334c-0.07234,-0.03339 -0.16135,-0.06676 -0.26707,-0.10015c0,1.05715 -0.23368,1.79158 -0.70105,2.20331c-0.48962,0.42286 -1.25745,0.63429 -2.30347,0.63429c-1.1573,0 -2.07257,-0.1836 -2.7458,-0.55083c-0.82346,-0.4618 -1.23519,-1.09887 -1.23519,-1.9112c0,-0.63986 0.29766,-1.16286 0.89301,-1.56903c0.69549,-0.4785 1.63858,-0.71775 2.82926,-0.71775c0.54527,0 1.19902,0.0779 1.96128,0.23369l-0.05007,-2.49542c-0.83459,0.03895 -1.57459,0.05842 -2.22001,0.05842c-0.85684,0 -1.73872,-0.0306 -2.64564,-0.0918v-1.16008c0.92361,0.08346 1.89729,0.12519 2.92106,0.12519c0.58978,0 1.23242,-0.01947 1.92791,-0.05842c-0.01112,-0.10015 -0.01669,-0.32827 -0.01669,-0.68436c0,-0.29489 -0.00556,-0.57865 -0.01668,-0.85128c-0.01112,-0.11128 -0.01668,-0.30602 -0.01668,-0.58421c-1.18512,0.02782 -1.96406,0.04173 -2.33685,0.04173c-1.00151,0 -2.13098,-0.0306 -3.38843,-0.0918v-1.16008c1.19068,0.08346 2.39805,0.12519 3.62212,0.12519c0.32827,0 1.01263,-0.01391 2.05309,-0.04173l-0.02502,-0.44234l-0.0334,-0.4924l-0.0334,-0.74278l-0.01668,-0.44233l-0.03336,-0.45903h1.33534zM41.5093,208.1389c-0.85684,-0.22812 -1.53843,-0.34218 -2.04475,-0.34218c-0.72887,0 -1.33812,0.14745 -1.82775,0.44234c-0.3394,0.20586 -0.5091,0.45067 -0.5091,0.73443c0,0.33383 0.19196,0.62038 0.57587,0.85963c0.48962,0.31715 1.13226,0.47572 1.9279,0.47572c1.25189,0 1.87783,-0.46181 1.87783,-1.38542z" fill="#000000" stroke="none" stroke-width="1" stroke-miterlimit="10"></path><path d="M23.06973,201.82992c0.98147,-0.04006 2.07646,-0.16358 3.28494,-0.37055l0.52079,0.38057c-0.2003,0.87131 -0.48406,1.78435 -0.85128,2.73912c0.88133,0.13353 1.65414,0.34887 2.31848,0.64598c0.09348,-0.49408 0.14522,-1.13004 0.15524,-1.90787l0.77616,0.17526c-0.03005,0.7578 -0.1085,1.43716 -0.23535,2.03807c0.53748,0.26707 1.07162,0.58254 1.60242,0.94642l-0.47072,0.69606c-0.57419,-0.40061 -1.01986,-0.68437 -1.33701,-0.85129c-0.33717,1.25188 -1.10165,2.24004 -2.29344,2.96447l-0.61594,-0.55585c1.15173,-0.60424 1.89953,-1.52396 2.24338,-2.75915c-0.81789,-0.39392 -1.62078,-0.63595 -2.40863,-0.72609c-0.99817,2.23002 -1.87949,3.34503 -2.64398,3.34503c-0.32716,0 -0.61759,-0.17527 -0.87131,-0.52579c-0.22033,-0.31046 -0.3305,-0.66934 -0.3305,-1.07662c0,-0.59422 0.27375,-1.11335 0.82124,-1.55735c0.64097,-0.51077 1.48556,-0.8012 2.53381,-0.87131c0.25371,-0.63763 0.47905,-1.41045 0.67601,-2.31849c-0.86129,0.14689 -1.73594,0.25538 -2.62394,0.32549zM24.9776,205.23504c-0.89468,0.09348 -1.55734,0.39059 -1.98799,0.89134c-0.217,0.26039 -0.32549,0.55751 -0.32549,0.89135c0,0.1736 0.03338,0.32549 0.10015,0.45568c0.09348,0.20364 0.22033,0.30546 0.38057,0.30546c0.18695,0 0.43232,-0.20864 0.73611,-0.62594c0.35721,-0.47071 0.72275,-1.11001 1.09665,-1.91789z" fill="#000000" stroke="none" stroke-width="1" stroke-miterlimit="10"></path><path d="M40.09983,184.91379h0.78618l-0.05007,1.44718c0.58421,-0.05342 1.22017,-0.14689 1.90787,-0.28043l0.08012,0.74112c-0.46737,0.08012 -1.14005,0.15857 -2.01804,0.23535l-0.06009,1.82274c0.11351,0.25706 0.17025,0.51744 0.17025,0.78117c0,0.3739 -0.10181,0.71941 -0.30545,1.03656c-0.17694,0.29378 -0.2654,0.62595 -0.2654,0.9965c0,0.31381 0.14021,0.51243 0.42063,0.59589c0.24704,0.07344 0.67435,0.11016 1.28193,0.11016c0.72109,0 1.31197,-0.06175 1.77266,-0.18527c0.444,-0.11351 0.666,-0.44901 0.666,-1.00652c0,-0.48073 -0.11684,-1.00318 -0.35053,-1.56736l0.82124,-0.16524c0.22701,0.66767 0.34052,1.28026 0.34052,1.83776c0,0.82458 -0.32549,1.34035 -0.97647,1.54733c-0.50075,0.16358 -1.29695,0.24537 -2.38859,0.24537c-0.83125,0 -1.42214,-0.07512 -1.77267,-0.22534c-0.38391,-0.16692 -0.57587,-0.45735 -0.57587,-0.87131c0,-0.21032 0.02003,-0.4223 0.06009,-0.63596c-0.12352,0.04674 -0.25539,0.0701 -0.3956,0.0701c-0.2704,0 -0.50075,-0.07511 -0.69103,-0.22534c-0.32048,-0.26039 -0.48072,-0.64931 -0.48072,-1.16675c0,-0.57754 0.19529,-1.05659 0.58588,-1.43716c0.29044,-0.28042 0.60424,-0.42064 0.94141,-0.42064c0.11017,0 0.24704,0.02504 0.41062,0.07512l0.03005,-1.16175c-0.47404,0.02003 -0.87965,0.03005 -1.21683,0.03005c-0.14355,0 -0.4006,-0.00668 -0.77116,-0.02003v-0.72609c0.33718,0.0267 0.70939,0.04006 1.11667,0.04006c0.12352,0 0.4173,-0.00668 0.88133,-0.02003l0.04507,-1.49725zM39.64414,188.75958c-0.17359,0 -0.33718,0.08179 -0.49074,0.24537c-0.2003,0.22033 -0.31547,0.50743 -0.34552,0.8613c0,0.05342 -0.005,0.09014 -0.01501,0.11016v0.09515c0.03339,0.51745 0.23869,0.77616 0.61592,0.77616c0.23369,0 0.43065,-0.14688 0.59089,-0.44066c0.09013,-0.1569 0.1352,-0.40228 0.1352,-0.73611c0,-0.60758 -0.16358,-0.91137 -0.49074,-0.91137zM46.16896,188.86974c-0.63428,-0.85796 -1.33534,-1.58906 -2.10316,-2.1933l0.61593,-0.50075c0.72109,0.54749 1.42881,1.2402 2.12319,2.07813z" fill="#000000" stroke="none" stroke-width="1" stroke-miterlimit="10"></path><path d="M55.9345,201.66965c0.1302,0.61426 0.26707,1.14672 0.41061,1.5974c0.71775,-0.47071 1.49392,-0.7578 2.32851,-0.86129c0.12352,-0.58087 0.20865,-1.10332 0.25538,-1.56735l0.81122,0.15022c-0.06343,0.38391 -0.15524,0.85295 -0.27542,1.40712c0.89134,0.06009 1.61076,0.33049 2.15825,0.81122c0.65765,0.56418 0.98648,1.27192 0.98648,2.1232c0,1.98299 -1.27525,3.20982 -3.82576,3.68053l-0.47071,-0.7361c2.29679,-0.31046 3.44519,-1.29194 3.44519,-2.94443c0,-0.73444 -0.2871,-1.31197 -0.86129,-1.73261c-0.42397,-0.31715 -0.95978,-0.50576 -1.60742,-0.56585c-0.39726,1.33534 -0.90302,2.49709 -1.51728,3.48525c0.11351,0.2003 0.28375,0.44734 0.51076,0.74111l-0.57586,0.51077c-0.13688,-0.17693 -0.27041,-0.37557 -0.4006,-0.5959c-0.68436,0.84126 -1.3053,1.2619 -1.86281,1.2619c-0.37056,0 -0.66767,-0.17359 -0.89134,-0.52078c-0.22701,-0.35053 -0.34051,-0.76782 -0.34051,-1.25188c0,-1.02821 0.50242,-1.99968 1.50726,-2.91439c-0.21032,-0.67101 -0.37056,-1.25856 -0.48072,-1.76265zM55.95454,204.43881c-0.68436,0.70105 -1.02654,1.42047 -1.02654,2.15825c0,0.68437 0.18861,1.02654 0.56585,1.02654c0.39059,0 0.86297,-0.36889 1.41714,-1.10667c-0.35721,-0.63763 -0.67602,-1.33033 -0.95644,-2.07812zM58.50838,203.05172c-0.65765,0.10015 -1.3103,0.38726 -1.95795,0.8613c0.2871,0.81122 0.56085,1.44718 0.82124,1.90787c0.50075,-0.92138 0.87965,-1.84445 1.13671,-2.76917z" fill="#000000" stroke="none" stroke-width="1" stroke-miterlimit="10"></path><path d="M37.79441,218.04899c0.66767,0.11351 1.36539,0.18528 2.09315,0.21532l0.05007,-0.36555l0.06509,-0.38057l0.09014,-0.62594l0.04006,-0.29545l0.05008,-0.32048l0.8012,0.11517c-0.12352,0.66433 -0.22534,1.28861 -0.30546,1.87282c0.72442,-0.00668 1.49725,-0.07177 2.31849,-0.19529v0.71107c-0.62427,0.10682 -1.43216,0.17192 -2.42365,0.19529c-0.07344,0.46403 -0.14188,0.99316 -0.20531,1.58739c0.70439,0 1.46721,-0.06843 2.28845,-0.20531v0.72108c-0.71775,0.12018 -1.51061,0.18027 -2.37858,0.18027c-0.07344,0.42064 -0.11017,0.81122 -0.11017,1.17176c0,1.09498 0.60424,1.64247 1.81273,1.64247c1.23853,0 1.8578,-0.54749 1.8578,-1.64247c0,-0.48406 -0.08179,-0.97313 -0.24537,-1.46721l0.81122,-0.08012c0.16358,0.50075 0.24537,1.00651 0.24537,1.51728c0,0.81456 -0.26707,1.43383 -0.80121,1.8578c-0.45735,0.35387 -1.07996,0.5308 -1.86781,0.5308c-1.71592,0 -2.57387,-0.7528 -2.57387,-2.2584c0,-0.18695 0.0267,-0.52746 0.08012,-1.02154c0,-0.03005 0.00334,-0.05509 0.01001,-0.07512c0.00333,-0.02003 0.00667,-0.05842 0.01002,-0.11517c0.00333,-0.03339 0.00667,-0.06009 0.01002,-0.08012c-0.76114,-0.07011 -1.32867,-0.14188 -1.70256,-0.21533l0.07512,-0.71608c0.56085,0.11684 1.1317,0.19196 1.71258,0.22534l0.03005,-0.22534l0.03005,-0.32048c0.00335,-0.01668 0.04842,-0.35719 0.1352,-1.02154c-0.74446,-0.03005 -1.44217,-0.10516 -2.09315,-0.22534l0.09014,-0.69104z" fill="#000000" stroke="none" stroke-width="1" stroke-miterlimit="10"></path><path d="M23.16671,233.75455h37.60324c1.89384,0 3.41848,1.52464 3.41848,3.41848v37.60324c0,1.89384 -1.52464,3.41848 -3.41848,3.41848h-37.60323c-1.89383,0 -3.41848,-1.52464 -3.41848,-3.41848v-37.60324c0,-1.89383 1.52464,-3.41848 3.41848,-3.41848z" fill="#cccccc" stroke="#000000" stroke-width="2" stroke-miterlimit="4"></path><g fill="#000000" stroke="none" stroke-width="1" stroke-miterlimit="10"><path d="M33.8436,262.51739c0.55361,1.76655 1.65666,3.06016 3.30915,3.88084l-0.47989,0.61342c-1.56346,-0.90413 -2.62618,-2.17966 -3.18813,-3.82659c-0.32549,1.81385 -1.3882,3.16031 -3.18813,4.03941l-0.47988,-0.58838c1.04046,-0.38391 1.85556,-1.02515 2.44534,-1.92372c0.39225,-0.60647 0.63986,-1.33814 0.74279,-2.19497h-3.22986v-0.59673h3.26324v-2.0364h0.67602v2.0364h3.32584v0.59673z"></path><path d="M40.42016,261.05688l0.38391,0.39643l-0.79286,0.78451h3.88084l-0.79704,-0.78451l0.38392,-0.39643l2.50377,2.46204l-2.50377,2.46203l-0.38392,-0.39642l0.79704,-0.78452h-3.88084l0.79286,0.78452l-0.38391,0.39642l-2.50377,-2.46203zM39.4729,262.76777l-0.76365,0.75113l0.76366,0.75113h4.95746l0.75948,-0.75113l-0.75948,-0.75113z"></path><path d="M50.15564,260.08038h0.67601v6.20517c0,0.28098 -0.05703,0.48267 -0.17108,0.60508c-0.12519,0.12519 -0.37557,0.18778 -0.75113,0.18778c-0.33384,0 -0.70244,-0.01669 -1.10583,-0.05007l-0.13354,-0.68436c0.37,0.07234 0.75391,0.10849 1.15173,0.10849c0.22256,0 0.33384,-0.10709 0.33384,-0.32131zM53.50652,265.38838c-0.46737,-1.32143 -1.03767,-2.51767 -1.7109,-3.58873l0.57169,-0.2629c0.71218,1.12669 1.31031,2.29929 1.79437,3.51779zM46.80477,265.08376c0.71496,-0.86518 1.21293,-1.98215 1.49391,-3.35088l0.65098,0.17109c-0.32549,1.51617 -0.86657,2.73745 -1.62327,3.66385z"></path></g><path d="M37.07281,252.56041v1.15173h-1.13671v-0.58087h0.56585v-0.57086zM37.07281,250.3671v1.02154h-0.57085v-1.02154zM37.07281,248.18381v1.01152h-0.57085v-1.01152zM34.76434,253.13127v0.58087h-1.02154v-0.58087zM32.57104,253.13127v0.58087h-1.01153v-0.58087zM37.07281,245.86033v1.15174h-0.57085v-0.57086h-0.56585v-0.58087zM34.76434,245.86033v0.58087h-1.02154v-0.58087zM32.57104,245.86033v0.58087h-1.01153v-0.58087zM29.8169,252.56041v0.57086h0.57086v0.58087h-1.14172v-1.15173zM29.8169,250.3671v1.02154h-0.57086v-1.02154zM29.8169,248.18381v1.01152h-0.57086v-1.01152zM30.38776,245.86033v0.58087h-0.57086v0.57086h-0.57086v-1.15174z" fill="#787878" stroke="none" stroke-width="1" stroke-miterlimit="10"></path><path d="M35.51243,247.94966c-0.40505,-0.64096 -0.888,-1.22183 -1.44885,-1.74262l0.70773,-0.51411c0.51633,0.42731 1.01486,0.98147 1.49558,1.6625zM36.93456,246.94815c-0.4095,-0.61426 -0.9058,-1.17955 -1.4889,-1.69588l0.70773,-0.50743c0.55194,0.44512 1.06382,0.97925 1.53564,1.60241z" fill="#000000" stroke="none" stroke-width="1" stroke-miterlimit="10"></path><path d="M54.16519,252.58042v1.15173h-1.13671v-0.58087h0.56585v-0.57085zM54.16519,250.38712v1.02154h-0.57086v-1.02154zM54.16519,248.20383v1.01152h-0.57086v-1.01152zM51.85672,253.15127v0.58087h-1.02154v-0.58087zM49.66342,253.15127v0.58087h-1.01152v-0.58087zM54.16519,245.88034v1.15173h-0.57086v-0.57086h-0.56585v-0.58087zM51.85672,245.88034v0.58087h-1.02154v-0.58087zM49.66342,245.88034v0.58087h-1.01152v-0.58087zM46.90928,252.58042v0.57085h0.57085v0.58087h-1.14171v-1.15173zM46.90928,250.38712v1.02154h-0.57086v-1.02154zM46.90928,248.20383v1.01152h-0.57086v-1.01152zM47.48014,245.88034v0.58087h-0.57085v0.57086h-0.57086v-1.15173z" fill="#787878" stroke="none" stroke-width="1" stroke-miterlimit="10"></path><path d="M53.2017,244.72481c0.41396,0 0.77895,0.16469 1.09498,0.49408c0.26262,0.29378 0.39393,0.62983 0.39393,1.00818c0,0.29378 -0.08235,0.56307 -0.24704,0.80788c-0.29823,0.46737 -0.72108,0.70105 -1.26857,0.70105c-0.24927,0 -0.47849,-0.06009 -0.68769,-0.18027c-0.53859,-0.28932 -0.80789,-0.73666 -0.80789,-1.34202c0,-0.50743 0.21366,-0.91249 0.64097,-1.21517c0.26707,-0.1825 0.56085,-0.27374 0.88133,-0.27374zM53.18834,245.32571c-0.13799,0 -0.28042,0.03562 -0.42731,0.10683c-0.32048,0.16914 -0.48072,0.43399 -0.48072,0.79452c0,0.16469 0.05118,0.32494 0.15356,0.48073c0.17359,0.28487 0.42509,0.42731 0.75447,0.42731c0.21811,0 0.4184,-0.07789 0.6009,-0.23368c0.2003,-0.1736 0.30045,-0.39838 0.30045,-0.67435c0,-0.27152 -0.1046,-0.49853 -0.3138,-0.68103c-0.17359,-0.14689 -0.36944,-0.22033 -0.58755,-0.22033z" fill="#000000" stroke="none" stroke-width="1" stroke-miterlimit="10"></path><path d="M125.37914,79.58127h37.60323c1.89383,0 3.41848,1.52464 3.41848,3.41848v37.60324c0,1.89383 -1.52464,3.41848 -3.41848,3.41848h-37.60323c-1.89383,0 -3.41848,-1.52464 -3.41848,-3.41848v-37.60324c0,-1.89383 1.52464,-3.41848 3.41848,-3.41848z" fill="#cccccc" stroke="#000000" stroke-width="2" stroke-miterlimit="4"></path><path d="M137.74608,98.39624c0.32827,0.01112 0.70383,0.01668 1.12669,0.01668c1.60798,0 3.15752,-0.14188 4.64866,-0.42564c-0.37278,-0.72331 -0.84572,-1.70813 -1.4188,-2.95445l1.23519,-0.34218c0.51188,1.24075 0.98481,2.24783 1.4188,3.02121c1.39655,-0.35053 2.67625,-0.82345 3.83911,-1.4188l0.71775,1.13504c-1.22962,0.56195 -2.55106,1.01542 -3.96429,1.36038c0.92362,1.6358 2.04196,3.27716 3.35504,4.92408l-1.05992,0.9097c-1.18511,-0.64541 -2.45647,-1.1879 -3.81407,-1.62745l0.37556,-0.97646c0.8624,0.2615 1.67753,0.55917 2.44535,0.89301c-0.89023,-1.10165 -1.7276,-2.37858 -2.51212,-3.83076c-2.12542,0.38947 -4.12565,0.58422 -6.00069,0.58422l-0.39226,-1.26857zM147.12686,108.39461c-1.02376,0.02227 -1.58015,0.0334 -1.66917,0.0334c-2.34797,0 -4.01437,-0.37 -4.99919,-1.11c-1.00151,-0.76226 -1.50226,-1.91678 -1.50226,-3.46354c0,-0.11684 0.00556,-0.22534 0.01668,-0.32549l1.2185,0.217c0,1.1406 0.32549,1.98353 0.97647,2.5288c0.68993,0.58978 1.9891,0.88466 3.89753,0.88466c0.59535,0 1.23242,-0.01947 1.91121,-0.05842l0.15022,1.29362z" fill="#000000" stroke="none" stroke-width="1" stroke-miterlimit="10"></path><path d="M125.09689,98.29661h0.85128v5.71359c0,0.53748 0.08846,0.93641 0.2654,1.1968c0.21699,0.30713 0.60424,0.46069 1.16174,0.46069c1.28193,0 2.31682,-0.78952 3.10467,-2.36856l0.60591,0.62593c-0.3739,0.72776 -0.87966,1.31866 -1.51728,1.77267c-0.68103,0.50075 -1.40879,0.75113 -2.18329,0.75113c-1.52563,0 -2.28843,-0.78617 -2.28843,-2.35854z" fill="#000000" stroke="none" stroke-width="1" stroke-miterlimit="10"></path><path d="M144.24517,81.98637h0.79119v1.61744l0.61593,-0.02003c0.79119,-0.02671 1.42714,-0.0434 1.90787,-0.05008l0.58588,-0.01002v0.71608h-0.68603h-0.52579l-0.84127,0.01501l-0.51076,0.01002h-0.54582v1.90787c0.15023,0.36054 0.22534,0.74612 0.22534,1.15674c0,1.6358 -0.87966,2.81924 -2.63897,3.55034l-0.59089,-0.63595c1.39877,-0.51411 2.22501,-1.2836 2.47873,-2.30847c-0.25371,0.3572 -0.61593,0.5358 -1.08664,0.5358c-0.39392,0 -0.74612,-0.15023 -1.05659,-0.45068c-0.30713,-0.30713 -0.46069,-0.6877 -0.46069,-1.14172c0,-0.49742 0.16024,-0.92807 0.48072,-1.29194c0.30045,-0.32048 0.65265,-0.48073 1.05659,-0.48073c0.28376,0 0.55083,0.08513 0.80121,0.25539v-1.07662l-0.96145,0.02003c-1.83944,0.03672 -2.96779,0.0651 -3.38509,0.08513v-0.71607c0.99483,-0.0167 2.44368,-0.03341 4.34654,-0.05009v-1.63746zM144.32529,86.83869v-0.10015c0,-0.29712 -0.09515,-0.54082 -0.28543,-0.7311c-0.15356,-0.14355 -0.32716,-0.21532 -0.52079,-0.21532c-0.42731,0 -0.70773,0.28375 -0.84126,0.85128l-0.01001,0.05007v0.05509c0,0.13688 0.01335,0.25872 0.04006,0.36554c0.09348,0.45401 0.36054,0.68103 0.80121,0.68103c0.30379,0 0.53246,-0.13688 0.68603,-0.41062c0.08679,-0.15023 0.1302,-0.33216 0.1302,-0.54582z" fill="#000000" stroke="none" stroke-width="1" stroke-miterlimit="10"></path><path d="M161.77239,98.13633h0.78118v2.31849l2.21332,-0.10516l0.03005,0.67601l-2.24337,0.10516v1.90788c0,0.53414 -0.27041,0.8012 -0.81123,0.8012c-0.46069,0 -0.90135,-0.08346 -1.32199,-0.25038v-0.76615c0.43399,0.19362 0.77951,0.29044 1.03656,0.29044c0.21032,0 0.31547,-0.1135 0.31547,-0.34051v-1.60241l-2.9194,0.1352v3.04458c0,0.4607 0.19196,0.73777 0.57586,0.83125c0.25037,0.06677 0.81624,0.10015 1.69756,0.10015c0.82791,0 1.6625,-0.0434 2.50377,-0.1302l0.03005,0.8012c-0.84126,0.06677 -1.66917,0.10015 -2.48373,0.10015c-1.26523,0 -2.09815,-0.10182 -2.49876,-0.30546c-0.41062,-0.21699 -0.61593,-0.61092 -0.61593,-1.18178v-3.21985l-1.93792,0.09014l-0.03005,-0.68603l1.96797,-0.09014v-2.02304h0.79118v1.98799l2.9194,-0.14021z" fill="#000000" stroke="none" stroke-width="1" stroke-miterlimit="10"></path><path d="M141.12353,114.26528c1.4889,-0.0701 3.02455,-0.19696 4.60693,-0.38057l0.42063,0.52078c-1.11501,1.02154 -2.08313,1.84278 -2.90436,2.46371c1.04156,-0.1569 2.47705,-0.34886 4.30647,-0.57587l0.10516,0.74111c-1.23519,0.10015 -2.14155,0.28376 -2.71909,0.55083c-0.94809,0.44066 -1.42214,1.115 -1.42214,2.02304c0,1.02822 0.97313,1.54733 2.91939,1.55734l0.03004,0.83125c-1.13504,-0.01002 -2.00969,-0.18195 -2.62394,-0.51577c-0.75113,-0.41062 -1.12669,-1.00152 -1.12669,-1.77268c0,-0.84127 0.45735,-1.61742 1.37206,-2.3285c-1.32532,0.19697 -2.47373,0.37556 -3.44519,0.5358l-0.67602,0.11016l-0.14521,-0.74612l0.42064,-0.05008l0.37055,-0.04506l0.62595,-0.07011l0.37556,-0.04006l0.42063,-0.05007c1.16175,-0.84794 2.1232,-1.6625 2.88434,-2.44368c-1.18846,0.20698 -2.39861,0.36055 -3.63046,0.4607l-0.16526,-0.77617z" fill="#000000" stroke="none" stroke-width="1" stroke-miterlimit="10"></path><path d="M125.37914,130.97237h37.60323c1.89383,0 3.41848,1.52464 3.41848,3.41848v37.60323c0,1.89384 -1.52464,3.41848 -3.41848,3.41848h-37.60323c-1.89383,0 -3.41848,-1.52464 -3.41848,-3.41848v-37.60323c0,-1.89383 1.52464,-3.41848 3.41848,-3.41848z" fill="#cccccc" stroke="#000000" stroke-width="2" stroke-miterlimit="4"></path><path d="M146.70122,146.62424h1.26857l0.05008,2.95445c0.79564,-0.08346 1.70812,-0.23647 2.73745,-0.45903l0.10015,1.26857c-0.64542,0.12797 -1.58572,0.25873 -2.82091,0.39226l0.08346,5.02423c0.90135,0.2782 2.09204,0.88745 3.57204,1.82775l-0.73444,1.18511c-1.00707,-0.71775 -1.94181,-1.29361 -2.80422,-1.7276v0.23368c0,1.02376 -0.27263,1.697 -0.81789,2.01971c-0.38391,0.22812 -0.89578,0.34218 -1.53564,0.34218c-2.38136,0 -3.57204,-0.76503 -3.57204,-2.29512c0,-0.69549 0.31437,-1.24632 0.94308,-1.65248c0.57308,-0.36722 1.2797,-0.55083 2.11986,-0.55083c0.40617,0 0.94031,0.06954 1.60241,0.20864l-0.10015,-4.53182c-0.72887,0.03339 -1.38542,0.05008 -1.96964,0.05008c-0.77338,0 -1.55233,-0.02782 -2.33684,-0.08346l-0.05842,-1.22684c0.8624,0.0779 1.74707,0.11684 2.65399,0.11684c0.51745,0 1.08218,-0.01669 1.69421,-0.05008zM146.90987,156.57255c-0.68437,-0.19474 -1.24353,-0.2921 -1.67752,-0.2921c-1.18511,0 -1.77768,0.36444 -1.77768,1.09331c0,0.2782 0.13631,0.51744 0.40895,0.71774c0.40616,0.32271 0.9709,0.48407 1.69421,0.48407c0.90135,0 1.35204,-0.4006 1.35204,-1.20181zM138.52225,159.78571c-0.36722,-1.99744 -0.55083,-3.7612 -0.55083,-5.29129c0,-2.1755 0.40339,-4.80445 1.21016,-7.88687l1.28526,0.32549c-0.81789,3.06016 -1.22684,5.60845 -1.22684,7.64484c0,0.58978 0.03338,1.29639 0.10015,2.11986c0.50632,-1.06827 0.90414,-1.86113 1.19347,-2.37858l0.85962,0.5091c-1.05158,1.94181 -1.57737,3.4246 -1.57737,4.44836c0,0.12241 0.00557,0.24759 0.01669,0.37556l-1.3103,0.13353z" fill="#000000" stroke="none" stroke-width="1" stroke-miterlimit="10"></path><path d="M123.9101,151.54548c1.22517,-0.26373 2.4804,-0.67435 3.76566,-1.23185l0.43065,0.64597c-1.55901,1.58906 -2.33852,2.93274 -2.33852,4.03106c0,0.56752 0.1569,1.03823 0.47071,1.41213c0.35053,0.41062 0.81622,0.61593 1.3971,0.61593c0.76115,0 1.35537,-0.32048 1.78269,-0.96144c0.36388,-0.55083 0.54582,-1.29361 0.54582,-2.22835c0,-1.15507 -0.12352,-2.18996 -0.37056,-3.10467l0.72609,-0.27541c0.70105,1.30196 1.52229,2.47706 2.46371,3.5253l-0.60591,0.64597c-0.59757,-0.75447 -1.15507,-1.60074 -1.67252,-2.53882c0.11016,0.73444 0.16525,1.37206 0.16525,1.91287c0,1.0883 -0.20197,1.95294 -0.60591,2.59391c-0.52412,0.82124 -1.34035,1.23185 -2.44868,1.23185c-0.78785,0 -1.4355,-0.26373 -1.94293,-0.79119c-0.47738,-0.49741 -0.71607,-1.14673 -0.71607,-1.94793c0,-1.2185 0.6877,-2.48874 2.0631,-3.81073c-0.89468,0.40061 -1.81774,0.73945 -2.76917,1.01653z" fill="#000000" stroke="none" stroke-width="1" stroke-miterlimit="10"></path><path d="M142.55763,139.91231c0.50409,0.70773 1.0883,1.0616 1.75263,1.0616c0.59422,0 0.89134,-0.28376 0.89134,-0.85128c0,-0.40394 -0.20865,-0.85462 -0.62594,-1.35204c-0.67101,-0.80454 -1.04323,-1.70256 -1.11668,-2.69405h0.77116c0.03005,0.54082 0.13854,0.99817 0.32549,1.37207c0.16024,0.32048 0.42731,0.68269 0.80121,1.08664c0.42397,0.46737 0.63595,0.99483 0.63595,1.58238c0,0.44734 -0.12018,0.81289 -0.36054,1.09665c-0.29711,0.34719 -0.72777,0.52078 -1.29194,0.52078c-0.87465,0 -1.62244,-0.39226 -2.24337,-1.17677zM148.21614,140.52324c-0.54415,-1.15507 -1.19346,-2.13822 -1.94793,-2.94944l0.58588,-0.49574c0.8613,0.88133 1.55568,1.85947 2.08313,2.93442zM145.42694,135.57079c-0.88133,-0.59089 -1.77266,-1.05827 -2.67402,-1.40212l0.39058,-0.62593c0.9047,0.33383 1.80939,0.78451 2.71409,1.35203zM139.78847,140.38302c0.70773,-0.78117 1.25856,-1.74262 1.65248,-2.88433l0.74612,0.32048c-0.43732,1.21183 -1.01486,2.25339 -1.73261,3.1247z" fill="#000000" stroke="none" stroke-width="1" stroke-miterlimit="10"></path><path d="M156.21904,154.1744c0.9748,-0.7044 1.92456,-1.5757 2.84929,-2.61393c0.21365,-0.23369 0.41896,-0.35053 0.61593,-0.35053c0.2003,0 0.43733,0.13688 0.71107,0.41062c1.56569,1.56903 3.1514,2.74078 4.75715,3.51528l-0.57586,0.76114c-1.62912,-0.96479 -3.103,-2.09815 -4.42165,-3.40011c-0.21032,-0.21365 -0.37056,-0.32048 -0.48073,-0.32048c-0.09681,0 -0.2437,0.11183 -0.44066,0.3355c-0.84794,0.95477 -1.68253,1.7543 -2.50377,2.39861z" fill="#000000" stroke="none" stroke-width="1" stroke-miterlimit="10"></path><path d="M143.0314,165.63633c0.57754,0.03339 1.05992,0.05008 1.44717,0.05008c1.0883,0 2.18496,-0.1035 3.28995,-0.31047l0.07512,0.68103c-0.63429,0.11016 -1.13338,0.18194 -1.49726,0.21533l0.03005,1.49726c0.57086,-0.06009 1.14505,-0.15023 1.72259,-0.27041l0.0601,0.70105c-0.51411,0.11016 -1.10166,0.19196 -1.76266,0.24537l0.06009,2.30847c0.67435,0.23702 1.37541,0.57086 2.10317,1.00151l-0.45068,0.68603c-0.51411,-0.37724 -1.05826,-0.69104 -1.63245,-0.94142v0.21533c0,0.54082 -0.1085,0.91137 -0.32549,1.11167c-0.23034,0.19697 -0.60258,0.29545 -1.11668,0.29545c-1.5056,0 -2.2584,-0.45902 -2.2584,-1.37707c0,-0.40394 0.17359,-0.72442 0.52078,-0.96145c0.36722,-0.24036 0.85629,-0.36054 1.46721,-0.36054c0.30045,0 0.62595,0.04173 0.97647,0.12519l-0.07011,-2.05309c-0.44734,0.02003 -0.8179,0.03005 -1.11167,0.03005c-0.63429,0 -1.21182,-0.02337 -1.73261,-0.0701l-0.05007,-0.67602c0.58421,0.04674 1.18511,0.0701 1.80271,0.0701c0.33383,0 0.68937,-0.01002 1.06661,-0.03005l-0.05007,-1.49725c-0.41062,0.02003 -0.7962,0.03005 -1.15674,0.03005c-0.50743,0 -0.96645,-0.01335 -1.37707,-0.04006l-0.03005,-0.67602zM145.75049,171.2548c-0.37055,-0.11684 -0.71941,-0.17526 -1.04657,-0.17526c-0.77784,0 -1.16675,0.222 -1.16675,0.666c0,0.18027 0.1135,0.33217 0.34051,0.45569c0.26039,0.13688 0.59423,0.20531 1.00151,0.20531c0.58087,0 0.87131,-0.23034 0.87131,-0.69104zM140.71792,173.13263c-0.25371,-1.1751 -0.38057,-2.25172 -0.38057,-3.22986c0,-1.1317 0.21532,-2.7291 0.64597,-4.7922l0.8012,0.14521c-0.45736,1.93291 -0.68603,3.58039 -0.68603,4.94244c0,0.35053 0.01335,0.71608 0.04006,1.09665c0.24704,-0.62761 0.46571,-1.13003 0.65599,-1.50727l0.51076,0.35053c-0.54082,1.1317 -0.81122,1.9713 -0.81122,2.51879c0,0.04006 0.00835,0.15356 0.02503,0.34051l-0.80121,0.13521z" fill="#000000" stroke="none" stroke-width="1" stroke-miterlimit="10"></path><path d="M125.37914,182.36346h37.60323c1.89383,0 3.41848,1.52464 3.41848,3.41848v37.60324c0,1.89383 -1.52464,3.41848 -3.41848,3.41848h-37.60323c-1.89383,0 -3.41848,-1.52464 -3.41848,-3.41848v-37.60324c0,-1.89383 1.52464,-3.41848 3.41848,-3.41848z" fill="#cccccc" stroke="#000000" stroke-width="2" stroke-miterlimit="4"></path><path d="M145.21457,200.55249c-1.42992,-0.97925 -2.80422,-1.71091 -4.12287,-2.19497l0.60091,-1.11c1.36316,0.48962 2.76526,1.18512 4.20632,2.08647zM138.92178,207.62145c0.18918,-2.24783 0.54805,-4.70151 1.07662,-7.36107l1.30196,0.29211c-0.42843,1.90843 -0.73722,3.76399 -0.9264,5.5667c1.79715,-1.50226 3.64437,-2.25339 5.54167,-2.25339c1.01263,0 1.85557,0.21142 2.52881,0.63429c0.94586,0.58421 1.4188,1.41602 1.4188,2.49542c0,1.50782 -0.77616,2.66791 -2.32849,3.48024c-1.26857,0.6788 -3.03513,1.0794 -5.29964,1.20181l-0.59256,-1.30196c1.99744,0 3.64437,-0.30045 4.94078,-0.90135c1.24075,-0.59534 1.86113,-1.41602 1.86113,-2.46204c0,-0.61759 -0.23369,-1.10722 -0.70106,-1.46887c-0.50075,-0.36722 -1.16841,-0.55083 -2.003,-0.55083c-1.85835,0 -3.75565,1.0015 -5.6919,3.00452z" fill="#000000" stroke="none" stroke-width="1" stroke-miterlimit="10"></path><path d="M127.32524,204.6091c-0.58421,1.19513 -1.15841,1.7927 -1.72259,1.7927c-0.56752,0 -0.85128,-0.81623 -0.85128,-2.44868c0,-0.7578 0.07511,-1.68754 0.22534,-2.7892l0.83125,0.10015c-0.16358,1.15841 -0.24537,2.09482 -0.24537,2.80922c0,0.888 0.08513,1.332 0.25539,1.332c0.06009,0 0.13521,-0.05174 0.22535,-0.15523c0.26373,-0.30379 0.50575,-0.71274 0.72608,-1.22685zM126.53405,208.70025c1.11835,-0.40061 1.88784,-0.96479 2.30848,-1.69254c0.32716,-0.56418 0.49073,-1.52062 0.49073,-2.86931c0,-0.95811 -0.05007,-2.00135 -0.15022,-3.12971h0.87131c0.08012,0.9748 0.12018,2.01804 0.12018,3.12971c0,1.55901 -0.21532,2.69739 -0.64597,3.41513c-0.47404,0.79119 -1.27692,1.39543 -2.40862,1.81273z" fill="#000000" stroke="none" stroke-width="1" stroke-miterlimit="10"></path><path d="M145.54713,185.85519l-2.84928,2.90437c0.65432,-0.24036 1.2669,-0.36054 1.83776,-0.36054c0.53748,0 1.0182,0.09848 1.44217,0.29545c0.78117,0.38057 1.17176,0.98982 1.17176,1.82775c0,0.77784 -0.36555,1.42381 -1.09665,1.93792c-0.67768,0.47071 -1.56068,0.70606 -2.64899,0.70606c-0.52746,0 -0.9581,-0.09848 -1.29194,-0.29545c-0.41062,-0.24704 -0.61593,-0.59256 -0.61593,-1.03656c0,-0.2871 0.11017,-0.54082 0.3305,-0.76114c0.28042,-0.28042 0.6393,-0.42063 1.07662,-0.42063c0.82124,0 1.50393,0.52079 2.04808,1.56235c0.91137,-0.37724 1.36705,-0.94476 1.36705,-1.70256c0,-0.52412 -0.21532,-0.91471 -0.64597,-1.17176c-0.32382,-0.19697 -0.74445,-0.29545 -1.2619,-0.29545c-1.34202,0 -2.64731,0.6393 -3.91589,1.91789l-0.55584,-0.5959c1.65249,-1.44551 3.08798,-2.88768 4.30648,-4.32651c-1.05158,0.16692 -2.11485,0.28376 -3.1898,0.35053l-0.17527,-0.78117c1.1918,-0.03005 2.59725,-0.14355 4.21635,-0.34052zM144.2652,192.42008c-0.37055,-0.7745 -0.82958,-1.16174 -1.37707,-1.16174c-0.35053,0 -0.56251,0.12018 -0.63595,0.36054c-0.02003,0.08012 -0.03005,0.13354 -0.03005,0.16025c0,0.48073 0.38391,0.72108 1.15173,0.72108c0.25371,0 0.55083,-0.02671 0.89134,-0.08012z" fill="#000000" stroke="none" stroke-width="1" stroke-miterlimit="10"></path><path d="M155.8136,202.88648c0.78785,-0.10349 1.46053,-0.21699 2.01803,-0.34052l0.01002,-0.30545l0.01002,-0.31047l0.02502,-0.50075l0.01001,-0.30546l0.01002,-0.34051h0.76615c-0.02337,0.59422 -0.05675,1.12837 -0.10015,1.60241l0.58588,0.5308c-0.20364,0.26707 -0.40227,0.55083 -0.59589,0.85128c-0.00668,0.06343 -0.01002,0.21032 -0.01002,0.44066c1.1751,-1.19513 2.19663,-1.7927 3.06461,-1.7927c0.76449,0 1.14673,0.44066 1.14673,1.32199c0,0.23034 -0.03339,0.52079 -0.10016,0.87132c-0.14355,0.79119 -0.21532,1.5707 -0.21532,2.33852c0,0.5742 0.11017,0.86129 0.3305,0.86129c0.13019,0 0.30045,-0.06844 0.51077,-0.20531c0.35387,-0.25037 0.67768,-0.61926 0.97145,-1.10666l0.45568,0.75113c-0.26707,0.36722 -0.59589,0.69438 -0.98648,0.98148c-0.40061,0.2871 -0.75947,0.43065 -1.07662,0.43065c-0.64431,0 -0.96645,-0.56084 -0.96645,-1.68253c0,-0.78785 0.08178,-1.75765 0.24536,-2.90938c0.02003,-0.12352 0.03006,-0.22534 0.03006,-0.30546c0,-0.39059 -0.16358,-0.58588 -0.49074,-0.58588c-0.73777,0 -1.71758,0.65265 -2.93942,1.95795c-0.00668,0.38057 -0.01002,0.81456 -0.01002,1.30196c0,0.79453 0.01002,1.66917 0.03005,2.62394h-0.79119v-0.61593c0,-1.08497 0.00334,-1.89119 0.01002,-2.41864c-0.22701,0.2871 -0.58588,0.7578 -1.07662,1.41213l-0.24537,0.3305l-0.63594,-0.55584c0.59089,-0.7745 1.25355,-1.56735 1.98799,-2.37857c0,-0.59757 0.01002,-1.1267 0.03005,-1.5874c-0.70773,0.19697 -1.3153,0.34385 -1.82273,0.44066l-0.18528,-0.8012z" fill="#000000" stroke="none" stroke-width="1" stroke-miterlimit="10"></path><path d="M145.29981,217.34292l-2.75915,3.04458c0.69438,-0.34051 1.37874,-0.51077 2.05309,-0.51077c0.57086,0 1.05992,0.1302 1.4672,0.39059c0.60758,0.38057 0.91137,0.93807 0.91137,1.67252c0,1.80605 -1.65749,2.7241 -4.97248,2.75414l-0.38057,-0.77616c0.19028,0.00668 0.3572,0.01002 0.50075,0.01002c2.6807,0 4.02105,-0.66267 4.02105,-1.98799c0,-0.41062 -0.15023,-0.74613 -0.45068,-1.00652c-0.30045,-0.26039 -0.70105,-0.39059 -1.20181,-0.39059c-0.46069,0 -0.98314,0.12351 -1.56735,0.37055c-0.87798,0.37055 -1.7009,0.90971 -2.46872,1.61744l-0.56585,-0.63595c1.26857,-1.04156 2.66401,-2.49042 4.1863,-4.34654c-0.95811,0.16692 -2.07645,0.3038 -3.35504,0.41062l-0.21533,-0.83125c1.43883,-0.05342 2.87767,-0.17026 4.3165,-0.35053l0.48072,0.56586z" fill="#000000" stroke="none" stroke-width="1" stroke-miterlimit="10"></path><path d="M125.37914,233.75455h37.60323c1.89383,0 3.41848,1.52464 3.41848,3.41848v37.60324c0,1.89384 -1.52464,3.41848 -3.41848,3.41848h-37.60323c-1.89383,0 -3.41848,-1.52464 -3.41848,-3.41848v-37.60324c0,-1.89383 1.52464,-3.41848 3.41848,-3.41848z" fill="#cccccc" stroke="#000000" stroke-width="2" stroke-miterlimit="4"></path><path d="M149.39861,259.67355v1.53564h-1.51561v-0.7745h0.75447v-0.76114zM149.39861,256.74915v1.36205h-0.76114v-1.36205zM149.39861,253.8381v1.3487h-0.76114v-1.3487zM146.32065,260.43467v0.7745h-1.36205v-0.7745zM143.39625,260.43467v0.7745h-1.34869v-0.7745zM149.39861,250.7401v1.53564h-0.76114v-0.76114h-0.75447v-0.7745zM146.32065,250.7401v0.7745h-1.36205v-0.7745zM143.39625,250.7401v0.7745h-1.34869v-0.7745zM139.72405,259.67355v0.76114h0.76114v0.7745h-1.52229v-1.53564zM139.72405,256.74915v1.36205h-0.76114v-1.36205zM139.72405,253.8381v1.3487h-0.76114v-1.3487zM140.4852,250.7401v0.7745h-0.76114v0.76114h-0.76114v-1.53564z" fill="#787878" stroke="none" stroke-width="1" stroke-miterlimit="10"></path><path d="M139.89932,263.52768c-0.82903,-1.2964 -1.7582,-2.42309 -2.78753,-3.38009l1.09331,-0.94308c0.95143,0.84571 1.914,1.94459 2.88769,3.29663z" fill="#000000" stroke="none" stroke-width="1" stroke-miterlimit="10"></path><path d="M140.4144,238.7736c0.05007,-0.79119 0.29545,-1.41713 0.73611,-1.87783c0.53748,-0.54749 1.23686,-0.82124 2.09815,-0.82124c0.65766,0 1.21349,0.14688 1.66751,0.44066c0.63763,0.41062 0.95644,0.98482 0.95644,1.7226c0,0.76782 -0.42397,1.4188 -1.27191,1.95293c-0.52078,0.3305 -0.84628,0.69271 -0.97647,1.08664c-0.09014,0.24704 -0.1352,0.59589 -0.1352,1.04657h-0.91137c0.01001,-0.68437 0.11683,-1.20013 0.32048,-1.54733c0.2437,-0.42064 0.66767,-0.82457 1.27191,-1.21182c0.52746,-0.34051 0.79119,-0.78285 0.79119,-1.327c0,-0.48406 -0.19529,-0.84961 -0.58588,-1.09665c-0.29711,-0.18361 -0.67602,-0.27541 -1.13671,-0.27541c-0.65098,0 -1.14505,0.21866 -1.48223,0.65598c-0.24704,0.31715 -0.38058,0.73444 -0.40061,1.25189zM142.43244,243.25534h1.19179v1.19179h-1.19179z" fill="#000000" stroke="none" stroke-width="1" stroke-miterlimit="10"></path><path d="M157.521,252.05422h1.19179l-0.18528,6.17428h-0.82123zM157.521,259.1599h1.19179v1.1918h-1.19179z" fill="#000000" stroke="none" stroke-width="1" stroke-miterlimit="10"></path><path d="M140.45752,271.29785h1.14673v1.14673h-1.14673zM143.87266,271.29785h1.14673v1.14673h-1.14673zM147.28779,271.29785h1.14673v1.14673h-1.14673z" fill="#000000" stroke="none" stroke-width="1" stroke-miterlimit="10"></path><path d="M126.13862,258.12339c0.21366,0 0.42565,0.05509 0.63596,0.16525c0.47738,0.25371 0.71608,0.65265 0.71608,1.1968c0,0.21699 -0.05175,0.4223 -0.15524,0.61593c-0.25371,0.49741 -0.65598,0.74613 -1.20681,0.74613c-0.23368,0 -0.45068,-0.05509 -0.65098,-0.16525c-0.47738,-0.25371 -0.71608,-0.65598 -0.71608,-1.20682c0,-0.37056 0.14021,-0.69437 0.42063,-0.97146c0.25371,-0.25371 0.57253,-0.38058 0.95644,-0.38058zM126.1286,258.64419c-0.22033,0 -0.41396,0.07178 -0.58088,0.21533c-0.17694,0.16692 -0.26539,0.37556 -0.26539,0.62594c0,0.12018 0.0267,0.24036 0.08012,0.36055c0.14689,0.32048 0.40227,0.48072 0.76615,0.48072c0.16024,0 0.30713,-0.04173 0.44066,-0.12519c0.26707,-0.15357 0.4006,-0.39226 0.4006,-0.71608c0,-0.35386 -0.15356,-0.60757 -0.46069,-0.76114c-0.12352,-0.05341 -0.25038,-0.08012 -0.38057,-0.08012z" fill="#000000" stroke="none" stroke-width="1" stroke-miterlimit="10"></path><path d="M133.3947,258.74881v1.15173h-1.13671v-0.58087h0.56584v-0.57086zM133.3947,256.55552v1.02154h-0.57086v-1.02154zM133.3947,254.37223v1.01153h-0.57086v-1.01153zM131.08623,259.31967v0.58087h-1.02154v-0.58087zM128.89293,259.31967v0.58087h-1.01153v-0.58087zM133.3947,252.04874v1.15174h-0.57086v-0.57085h-0.56584v-0.58088zM131.08623,252.04874v0.58088h-1.02154v-0.58088zM128.89293,252.04874v0.58088h-1.01153v-0.58088zM126.13879,258.74881v0.57086h0.57085v0.58087h-1.14171v-1.15173zM126.13879,256.55552v1.02154h-0.57086v-1.02154zM126.13879,254.37223v1.01153h-0.57086v-1.01153zM126.70964,252.04874v0.58088h-0.57085v0.57085h-0.57086v-1.15174z" fill="#787878" stroke="none" stroke-width="1" stroke-miterlimit="10"></path><path d="M363.42102,82.93024h37.60324c1.89384,0 3.41848,1.52464 3.41848,3.41848v37.60324c0,1.89383 -1.52464,3.41848 -3.41848,3.41848h-37.60324c-1.89384,0 -3.41848,-1.52464 -3.41848,-3.41848v-37.60324c0,-1.89383 1.52464,-3.41848 3.41848,-3.41848z" fill="#cccccc" stroke="#000000" stroke-width="2" stroke-miterlimit="4"></path><path d="M363.42102,134.32133h37.60324c1.89384,0 3.41848,1.52464 3.41848,3.41848v37.60323c0,1.89384 -1.52464,3.41849 -3.41848,3.41849h-37.60324c-1.89384,0 -3.41848,-1.52464 -3.41848,-3.41849v-37.60323c0,-1.89383 1.52464,-3.41848 3.41848,-3.41848z" fill="#cccccc" stroke="#000000" stroke-width="2" stroke-miterlimit="4"></path><path d="M363.42102,185.71243h37.60324c1.89384,0 3.41848,1.52464 3.41848,3.41848v37.60324c0,1.89383 -1.52464,3.41848 -3.41848,3.41848h-37.60324c-1.89384,0 -3.41848,-1.52464 -3.41848,-3.41848v-37.60324c0,-1.89383 1.52464,-3.41848 3.41848,-3.41848z" fill="#cccccc" stroke="#000000" stroke-width="2" stroke-miterlimit="4"></path><path d="M363.42102,237.10353h37.60324c1.89384,0 3.41848,1.52464 3.41848,3.41848v37.60324c0,1.89384 -1.52464,3.41848 -3.41848,3.41848h-37.60324c-1.89384,0 -3.41848,-1.52464 -3.41848,-3.41848v-37.60324c0,-1.89383 1.52464,-3.41848 3.41848,-3.41848z" fill="#cccccc" stroke="#000000" stroke-width="2" stroke-miterlimit="4"></path><path d="M312.3148,82.93024h37.60324c1.89384,0 3.41848,1.52464 3.41848,3.41848v37.60324c0,1.89383 -1.52464,3.41848 -3.41848,3.41848h-37.60324c-1.89384,0 -3.41848,-1.52464 -3.41848,-3.41848v-37.60324c0,-1.89383 1.52464,-3.41848 3.41848,-3.41848z" fill="#cccccc" stroke="#000000" stroke-width="2" stroke-miterlimit="4"></path><path d="M312.3148,134.32133h37.60324c1.89384,0 3.41848,1.52464 3.41848,3.41848v37.60323c0,1.89384 -1.52464,3.41849 -3.41848,3.41849h-37.60324c-1.89384,0 -3.41848,-1.52464 -3.41848,-3.41849v-37.60323c0,-1.89383 1.52464,-3.41848 3.41848,-3.41848z" fill="#cccccc" stroke="#000000" stroke-width="2" stroke-miterlimit="4"></path><path d="M312.3148,185.71243h37.60324c1.89384,0 3.41848,1.52464 3.41848,3.41848v37.60324c0,1.89383 -1.52464,3.41848 -3.41848,3.41848h-37.60324c-1.89384,0 -3.41848,-1.52464 -3.41848,-3.41848v-37.60324c0,-1.89383 1.52464,-3.41848 3.41848,-3.41848z" fill="#cccccc" stroke="#000000" stroke-width="2" stroke-miterlimit="4"></path><path d="M312.3148,237.10353h37.60324c1.89384,0 3.41848,1.52464 3.41848,3.41848v37.60324c0,1.89384 -1.52464,3.41848 -3.41848,3.41848h-37.60324c-1.89384,0 -3.41848,-1.52464 -3.41848,-3.41848v-37.60324c0,-1.89383 1.52464,-3.41848 3.41848,-3.41848z" fill="#cccccc" stroke="#000000" stroke-width="2" stroke-miterlimit="4"></path><path d="M327.95923,256.07318l0.63914,0.65998l-1.31995,1.30606h6.46083l-1.3269,-1.30606l0.63915,-0.65998l4.16827,4.09882l-4.16827,4.0988l-0.63915,-0.65997l1.3269,-1.30607h-6.46083l1.31995,1.30607l-0.63914,0.65997l-4.16827,-4.0988zM326.38224,258.92152l-1.27134,1.25049l1.27134,1.25048h8.25318l1.26439,-1.25048l-1.26439,-1.25049z" fill="#000000" stroke="none" stroke-width="1" stroke-miterlimit="10"></path><path d="M414.52724,82.93024h37.60323c1.89384,0 3.41848,1.52464 3.41848,3.41848v37.60324c0,1.89383 -1.52464,3.41848 -3.41848,3.41848h-37.60323c-1.89384,0 -3.41848,-1.52464 -3.41848,-3.41848v-37.60324c0,-1.89383 1.52464,-3.41848 3.41848,-3.41848z" fill="#cccccc" stroke="#000000" stroke-width="2" stroke-miterlimit="4"></path><path d="M414.52724,134.32133h37.60323c1.89384,0 3.41848,1.52464 3.41848,3.41848v37.60323c0,1.89384 -1.52464,3.41849 -3.41848,3.41849h-37.60323c-1.89384,0 -3.41848,-1.52464 -3.41848,-3.41849v-37.60323c0,-1.89383 1.52464,-3.41848 3.41848,-3.41848z" fill="#cccccc" stroke="#000000" stroke-width="2" stroke-miterlimit="4"></path><path d="M414.52724,185.71243h37.60323c1.89384,0 3.41848,1.52464 3.41848,3.41848v37.60324c0,1.89383 -1.52464,3.41848 -3.41848,3.41848h-37.60323c-1.89384,0 -3.41848,-1.52464 -3.41848,-3.41848v-37.60324c0,-1.89383 1.52464,-3.41848 3.41848,-3.41848z" fill="#cccccc" stroke="#000000" stroke-width="2" stroke-miterlimit="4"></path><path d="M414.52724,237.10353h37.60323c1.89384,0 3.41848,1.52464 3.41848,3.41848v37.60324c0,1.89384 -1.52464,3.41848 -3.41848,3.41848h-37.60323c-1.89384,0 -3.41848,-1.52464 -3.41848,-3.41848v-37.60324c0,-1.89383 1.52464,-3.41848 3.41848,-3.41848z" fill="#cccccc" stroke="#000000" stroke-width="2" stroke-miterlimit="4"></path><text transform="translate(323.53992,110.56976) scale(0.4067,0.4067)" font-size="40" xml:space="preserve" fill="#000000" fill-rule="nonzero" stroke="none" stroke-width="1" stroke-linecap="butt" stroke-linejoin="miter" stroke-miterlimit="10" stroke-dasharray="" stroke-dashoffset="0" font-family="Sans Serif" font-weight="normal" text-anchor="start" style="mix-blend-mode: normal"><tspan x="0" dy="0">@</tspan></text><text transform="translate(329.06095,91.32529) scale(0.25331,0.25331)" font-size="40" xml:space="preserve" fill="#000000" fill-rule="nonzero" stroke="none" stroke-width="1" stroke-linecap="butt" stroke-linejoin="miter" stroke-miterlimit="10" stroke-dasharray="" stroke-dashoffset="0" font-family="Sans Serif" font-weight="normal" text-anchor="start" style="mix-blend-mode: normal"><tspan x="0" dy="0">_</tspan></text><text transform="translate(314.07889,107.82695) scale(0.29047,0.29047)" font-size="40" xml:space="preserve" fill="#000000" fill-rule="nonzero" stroke="none" stroke-width="1" stroke-linecap="butt" stroke-linejoin="miter" stroke-miterlimit="10" stroke-dasharray="" stroke-dashoffset="0" font-family="Sans Serif" font-weight="normal" text-anchor="start" style="mix-blend-mode: normal"><tspan x="0" dy="0">-</tspan></text><text transform="translate(344.36053,108.26167) scale(0.27365,0.27365)" font-size="40" xml:space="preserve" fill="#000000" fill-rule="nonzero" stroke="none" stroke-width="1" stroke-linecap="butt" stroke-linejoin="miter" stroke-miterlimit="10" stroke-dasharray="" stroke-dashoffset="0" font-family="Sans Serif" font-weight="normal" text-anchor="start" style="mix-blend-mode: normal"><tspan x="0" dy="0">/</tspan></text><text transform="translate(327.69523,125.15017) scale(0.2801,0.2801)" font-size="40" xml:space="preserve" fill="#000000" fill-rule="nonzero" stroke="none" stroke-width="1" stroke-linecap="butt" stroke-linejoin="miter" stroke-miterlimit="10" stroke-dasharray="" stroke-dashoffset="0" font-family="Sans Serif" font-weight="normal" text-anchor="start" style="mix-blend-mode: normal"><tspan x="0" dy="0">1</tspan></text><text transform="translate(377.15231,110.04724) scale(0.40262,0.40262)" font-size="40" xml:space="preserve" fill="#000000" fill-rule="nonzero" stroke="none" stroke-width="1" stroke-linecap="butt" stroke-linejoin="miter" stroke-miterlimit="10" stroke-dasharray="" stroke-dashoffset="0" font-family="Sans Serif" font-weight="normal" text-anchor="start" style="mix-blend-mode: normal"><tspan x="0" dy="0">A</tspan></text><text transform="translate(378.93787,93.75393) scale(0.21561,0.21561)" font-size="40" xml:space="preserve" fill="#000000" fill-rule="nonzero" stroke="none" stroke-width="1" stroke-linecap="butt" stroke-linejoin="miter" stroke-miterlimit="10" stroke-dasharray="" stroke-dashoffset="0" font-family="Sans Serif" font-weight="normal" text-anchor="start" style="mix-blend-mode: normal"><tspan x="0" dy="0">C</tspan></text><text transform="translate(365.24852,107.59209) scale(0.25431,0.25431)" font-size="40" xml:space="preserve" fill="#000000" fill-rule="nonzero" stroke="none" stroke-width="1" stroke-linecap="butt" stroke-linejoin="miter" stroke-miterlimit="10" stroke-dasharray="" stroke-dashoffset="0" font-family="Sans Serif" font-weight="normal" text-anchor="start" style="mix-blend-mode: normal"><tspan x="0" dy="0">B</tspan></text><text transform="translate(380.12825,122.99261) scale(0.23496,0.23496)" font-size="40" xml:space="preserve" fill="#000000" fill-rule="nonzero" stroke="none" stroke-width="1" stroke-linecap="butt" stroke-linejoin="miter" stroke-miterlimit="10" stroke-dasharray="" stroke-dashoffset="0" font-family="Sans Serif" font-weight="normal" text-anchor="start" style="mix-blend-mode: normal"><tspan x="0" dy="0">2</tspan></text><text transform="translate(428.29774,110.00639) scale(0.40262,0.40262)" font-size="40" xml:space="preserve" fill="#000000" fill-rule="nonzero" stroke="none" stroke-width="1" stroke-linecap="butt" stroke-linejoin="miter" stroke-miterlimit="10" stroke-dasharray="" stroke-dashoffset="0" font-family="Sans Serif" font-weight="normal" text-anchor="start" style="mix-blend-mode: normal"><tspan x="0" dy="0">D</tspan></text><text transform="translate(430.08331,93.71308) scale(0.21561,0.21561)" font-size="40" xml:space="preserve" fill="#000000" fill-rule="nonzero" stroke="none" stroke-width="1" stroke-linecap="butt" stroke-linejoin="miter" stroke-miterlimit="10" stroke-dasharray="" stroke-dashoffset="0" font-family="Sans Serif" font-weight="normal" text-anchor="start" style="mix-blend-mode: normal"><tspan x="0" dy="0">F</tspan></text><text transform="translate(416.39395,107.55123) scale(0.25431,0.25431)" font-size="40" xml:space="preserve" fill="#000000" fill-rule="nonzero" stroke="none" stroke-width="1" stroke-linecap="butt" stroke-linejoin="miter" stroke-miterlimit="10" stroke-dasharray="" stroke-dashoffset="0" font-family="Sans Serif" font-weight="normal" text-anchor="start" style="mix-blend-mode: normal"><tspan x="0" dy="0">E</tspan></text><text transform="translate(431.27369,122.95176) scale(0.23496,0.23496)" font-size="40" xml:space="preserve" fill="#000000" fill-rule="nonzero" stroke="none" stroke-width="1" stroke-linecap="butt" stroke-linejoin="miter" stroke-miterlimit="10" stroke-dasharray="" stroke-dashoffset="0" font-family="Sans Serif" font-weight="normal" text-anchor="start" style="mix-blend-mode: normal"><tspan x="0" dy="0">3</tspan></text><text transform="translate(325.88432,160.5566) scale(0.40262,0.40262)" font-size="40" xml:space="preserve" fill="#000000" fill-rule="nonzero" stroke="none" stroke-width="1" stroke-linecap="butt" stroke-linejoin="miter" stroke-miterlimit="10" stroke-dasharray="" stroke-dashoffset="0" font-family="Sans Serif" font-weight="normal" text-anchor="start" style="mix-blend-mode: normal"><tspan x="0" dy="0">G</tspan></text><text transform="translate(330.05064,144.26331) scale(0.21561,0.21561)" font-size="40" xml:space="preserve" fill="#000000" fill-rule="nonzero" stroke="none" stroke-width="1" stroke-linecap="butt" stroke-linejoin="miter" stroke-miterlimit="10" stroke-dasharray="" stroke-dashoffset="0" font-family="Sans Serif" font-weight="normal" text-anchor="start" style="mix-blend-mode: normal"><tspan x="0" dy="0">I</tspan></text><text transform="translate(313.98053,158.10145) scale(0.25431,0.25431)" font-size="40" xml:space="preserve" fill="#000000" fill-rule="nonzero" stroke="none" stroke-width="1" stroke-linecap="butt" stroke-linejoin="miter" stroke-miterlimit="10" stroke-dasharray="" stroke-dashoffset="0" font-family="Sans Serif" font-weight="normal" text-anchor="start" style="mix-blend-mode: normal"><tspan x="0" dy="0">H</tspan></text><text transform="translate(328.86026,173.502) scale(0.23496,0.23496)" font-size="40" xml:space="preserve" fill="#000000" fill-rule="nonzero" stroke="none" stroke-width="1" stroke-linecap="butt" stroke-linejoin="miter" stroke-miterlimit="10" stroke-dasharray="" stroke-dashoffset="0" font-family="Sans Serif" font-weight="normal" text-anchor="start" style="mix-blend-mode: normal"><tspan x="0" dy="0">4</tspan></text><text transform="translate(380.30329,159.62299) scale(0.40262,0.40262)" font-size="40" xml:space="preserve" fill="#000000" fill-rule="nonzero" stroke="none" stroke-width="1" stroke-linecap="butt" stroke-linejoin="miter" stroke-miterlimit="10" stroke-dasharray="" stroke-dashoffset="0" font-family="Sans Serif" font-weight="normal" text-anchor="start" style="mix-blend-mode: normal"><tspan x="0" dy="0">J</tspan></text><text transform="translate(379.11291,144.52004) scale(0.21561,0.21561)" font-size="40" xml:space="preserve" fill="#000000" fill-rule="nonzero" stroke="none" stroke-width="1" stroke-linecap="butt" stroke-linejoin="miter" stroke-miterlimit="10" stroke-dasharray="" stroke-dashoffset="0" font-family="Sans Serif" font-weight="normal" text-anchor="start" style="mix-blend-mode: normal"><tspan x="0" dy="0">L</tspan></text><text transform="translate(365.42355,158.35822) scale(0.25431,0.25431)" font-size="40" xml:space="preserve" fill="#000000" fill-rule="nonzero" stroke="none" stroke-width="1" stroke-linecap="butt" stroke-linejoin="miter" stroke-miterlimit="10" stroke-dasharray="" stroke-dashoffset="0" font-family="Sans Serif" font-weight="normal" text-anchor="start" style="mix-blend-mode: normal"><tspan x="0" dy="0">K</tspan></text><text transform="translate(380.30329,173.75874) scale(0.23496,0.23496)" font-size="40" xml:space="preserve" fill="#000000" fill-rule="nonzero" stroke="none" stroke-width="1" stroke-linecap="butt" stroke-linejoin="miter" stroke-miterlimit="10" stroke-dasharray="" stroke-dashoffset="0" font-family="Sans Serif" font-weight="normal" text-anchor="start" style="mix-blend-mode: normal"><tspan x="0" dy="0">5</tspan></text><text transform="translate(426.68721,161.9629) scale(0.40262,0.40262)" font-size="40" xml:space="preserve" fill="#000000" fill-rule="nonzero" stroke="none" stroke-width="1" stroke-linecap="butt" stroke-linejoin="miter" stroke-miterlimit="10" stroke-dasharray="" stroke-dashoffset="0" font-family="Sans Serif" font-weight="normal" text-anchor="start" style="mix-blend-mode: normal"><tspan x="0" dy="0">M</tspan></text><text transform="translate(429.96075,145.07439) scale(0.21561,0.21561)" font-size="40" xml:space="preserve" fill="#000000" fill-rule="nonzero" stroke="none" stroke-width="1" stroke-linecap="butt" stroke-linejoin="miter" stroke-miterlimit="10" stroke-dasharray="" stroke-dashoffset="0" font-family="Sans Serif" font-weight="normal" text-anchor="start" style="mix-blend-mode: normal"><tspan x="0" dy="0">O</tspan></text><text transform="translate(416.27139,158.91255) scale(0.25431,0.25431)" font-size="40" xml:space="preserve" fill="#000000" fill-rule="nonzero" stroke="none" stroke-width="1" stroke-linecap="butt" stroke-linejoin="miter" stroke-miterlimit="10" stroke-dasharray="" stroke-dashoffset="0" font-family="Sans Serif" font-weight="normal" text-anchor="start" style="mix-blend-mode: normal"><tspan x="0" dy="0">N</tspan></text><text transform="translate(431.44872,174.31308) scale(0.23496,0.23496)" font-size="40" xml:space="preserve" fill="#000000" fill-rule="nonzero" stroke="none" stroke-width="1" stroke-linecap="butt" stroke-linejoin="miter" stroke-miterlimit="10" stroke-dasharray="" stroke-dashoffset="0" font-family="Sans Serif" font-weight="normal" text-anchor="start" style="mix-blend-mode: normal"><tspan x="0" dy="0">6</tspan></text><text transform="translate(326.65455,212.51313) scale(0.40262,0.40262)" font-size="40" xml:space="preserve" fill="#000000" fill-rule="nonzero" stroke="none" stroke-width="1" stroke-linecap="butt" stroke-linejoin="miter" stroke-miterlimit="10" stroke-dasharray="" stroke-dashoffset="0" font-family="Sans Serif" font-weight="normal" text-anchor="start" style="mix-blend-mode: normal"><tspan x="0" dy="0">P</tspan></text><text transform="translate(328.44011,196.21983) scale(0.21561,0.21561)" font-size="40" xml:space="preserve" fill="#000000" fill-rule="nonzero" stroke="none" stroke-width="1" stroke-linecap="butt" stroke-linejoin="miter" stroke-miterlimit="10" stroke-dasharray="" stroke-dashoffset="0" font-family="Sans Serif" font-weight="normal" text-anchor="start" style="mix-blend-mode: normal"><tspan x="0" dy="0">R</tspan></text><text transform="translate(314.75076,208.49561) scale(0.20917,0.20917)" font-size="40" xml:space="preserve" fill="#000000" fill-rule="nonzero" stroke="none" stroke-width="1" stroke-linecap="butt" stroke-linejoin="miter" stroke-miterlimit="10" stroke-dasharray="" stroke-dashoffset="0" font-family="Sans Serif" font-weight="normal" text-anchor="start" style="mix-blend-mode: normal"><tspan x="0" dy="0">Q</tspan></text><text transform="translate(329.63049,225.45851) scale(0.23496,0.23496)" font-size="40" xml:space="preserve" fill="#000000" fill-rule="nonzero" stroke="none" stroke-width="1" stroke-linecap="butt" stroke-linejoin="miter" stroke-miterlimit="10" stroke-dasharray="" stroke-dashoffset="0" font-family="Sans Serif" font-weight="normal" text-anchor="start" style="mix-blend-mode: normal"><tspan x="0" dy="0">7</tspan></text><text transform="translate(342.38621,210.17877) scale(0.22459,0.22459)" font-size="40" xml:space="preserve" fill="#000000" fill-rule="nonzero" stroke="none" stroke-width="1" stroke-linecap="butt" stroke-linejoin="miter" stroke-miterlimit="10" stroke-dasharray="" stroke-dashoffset="0" font-family="Sans Serif" font-weight="normal" text-anchor="start" style="mix-blend-mode: normal"><tspan x="0" dy="0">S</tspan></text><text transform="translate(378.13842,213.10832) scale(0.40262,0.40262)" font-size="40" xml:space="preserve" fill="#000000" fill-rule="nonzero" stroke="none" stroke-width="1" stroke-linecap="butt" stroke-linejoin="miter" stroke-miterlimit="10" stroke-dasharray="" stroke-dashoffset="0" font-family="Sans Serif" font-weight="normal" text-anchor="start" style="mix-blend-mode: normal"><tspan x="0" dy="0">T</tspan></text><text transform="translate(379.3288,195.92223) scale(0.21561,0.21561)" font-size="40" xml:space="preserve" fill="#000000" fill-rule="nonzero" stroke="none" stroke-width="1" stroke-linecap="butt" stroke-linejoin="miter" stroke-miterlimit="10" stroke-dasharray="" stroke-dashoffset="0" font-family="Sans Serif" font-weight="normal" text-anchor="start" style="mix-blend-mode: normal"><tspan x="0" dy="0">V</tspan></text><text transform="translate(365.63945,209.76039) scale(0.25431,0.25431)" font-size="40" xml:space="preserve" fill="#000000" fill-rule="nonzero" stroke="none" stroke-width="1" stroke-linecap="butt" stroke-linejoin="miter" stroke-miterlimit="10" stroke-dasharray="" stroke-dashoffset="0" font-family="Sans Serif" font-weight="normal" text-anchor="start" style="mix-blend-mode: normal"><tspan x="0" dy="0">U</tspan></text><text transform="translate(380.81677,225.16091) scale(0.23496,0.23496)" font-size="40" xml:space="preserve" fill="#000000" fill-rule="nonzero" stroke="none" stroke-width="1" stroke-linecap="butt" stroke-linejoin="miter" stroke-miterlimit="10" stroke-dasharray="" stroke-dashoffset="0" font-family="Sans Serif" font-weight="normal" text-anchor="start" style="mix-blend-mode: normal"><tspan x="0" dy="0">8</tspan></text><text transform="translate(426.9031,213.06748) scale(0.40262,0.40262)" font-size="40" xml:space="preserve" fill="#000000" fill-rule="nonzero" stroke="none" stroke-width="1" stroke-linecap="butt" stroke-linejoin="miter" stroke-miterlimit="10" stroke-dasharray="" stroke-dashoffset="0" font-family="Sans Serif" font-weight="normal" text-anchor="start" style="mix-blend-mode: normal"><tspan x="0" dy="0">W</tspan></text><text transform="translate(430.17664,196.17897) scale(0.21561,0.21561)" font-size="40" xml:space="preserve" fill="#000000" fill-rule="nonzero" stroke="none" stroke-width="1" stroke-linecap="butt" stroke-linejoin="miter" stroke-miterlimit="10" stroke-dasharray="" stroke-dashoffset="0" font-family="Sans Serif" font-weight="normal" text-anchor="start" style="mix-blend-mode: normal"><tspan x="0" dy="0">Y</tspan></text><text transform="translate(416.48729,210.01713) scale(0.25431,0.25431)" font-size="40" xml:space="preserve" fill="#000000" fill-rule="nonzero" stroke="none" stroke-width="1" stroke-linecap="butt" stroke-linejoin="miter" stroke-miterlimit="10" stroke-dasharray="" stroke-dashoffset="0" font-family="Sans Serif" font-weight="normal" text-anchor="start" style="mix-blend-mode: normal"><tspan x="0" dy="0">X</tspan></text><text transform="translate(431.66461,225.41766) scale(0.23496,0.23496)" font-size="40" xml:space="preserve" fill="#000000" fill-rule="nonzero" stroke="none" stroke-width="1" stroke-linecap="butt" stroke-linejoin="miter" stroke-miterlimit="10" stroke-dasharray="" stroke-dashoffset="0" font-family="Sans Serif" font-weight="normal" text-anchor="start" style="mix-blend-mode: normal"><tspan x="0" dy="0">9</tspan></text><text transform="translate(445.90831,210.86906) scale(0.25431,0.25431)" font-size="40" xml:space="preserve" fill="#000000" fill-rule="nonzero" stroke="none" stroke-width="1" stroke-linecap="butt" stroke-linejoin="miter" stroke-miterlimit="10" stroke-dasharray="" stroke-dashoffset="0" font-family="Sans Serif" font-weight="normal" text-anchor="start" style="mix-blend-mode: normal"><tspan x="0" dy="0">Z</tspan></text><text transform="translate(337.53136,265.64838) scale(0.40262,0.40262)" font-size="40" xml:space="preserve" fill="#000000" fill-rule="nonzero" stroke="none" stroke-width="1" stroke-linecap="butt" stroke-linejoin="miter" stroke-miterlimit="10" stroke-dasharray="" stroke-dashoffset="0" font-family="Sans Serif" font-weight="normal" text-anchor="start" style="mix-blend-mode: normal"><tspan x="0" dy="0">A</tspan></text><text transform="translate(313.98053,265.01236) scale(0.40262,0.40262)" font-size="40" xml:space="preserve" fill="#000000" fill-rule="nonzero" stroke="none" stroke-width="1" stroke-linecap="butt" stroke-linejoin="miter" stroke-miterlimit="10" stroke-dasharray="" stroke-dashoffset="0" font-family="Sans Serif" font-weight="normal" text-anchor="start" style="mix-blend-mode: normal"><tspan x="0" dy="0">a</tspan></text><text transform="translate(380.73507,264.2129) scale(0.40262,0.40262)" font-size="40" xml:space="preserve" fill="#000000" fill-rule="nonzero" stroke="none" stroke-width="1" stroke-linecap="butt" stroke-linejoin="miter" stroke-miterlimit="10" stroke-dasharray="" stroke-dashoffset="0" font-family="Sans Serif" font-weight="normal" text-anchor="start" style="mix-blend-mode: normal"><tspan x="0" dy="0">'</tspan></text><text transform="translate(381.33027,247.32441) scale(0.21561,0.21561)" font-size="40" xml:space="preserve" fill="#000000" fill-rule="nonzero" stroke="none" stroke-width="1" stroke-linecap="butt" stroke-linejoin="miter" stroke-miterlimit="10" stroke-dasharray="" stroke-dashoffset="0" font-family="Sans Serif" font-weight="normal" text-anchor="start" style="mix-blend-mode: normal"><tspan x="0" dy="0">:</tspan></text><text transform="translate(365.55775,261.16256) scale(0.25431,0.25431)" font-size="40" xml:space="preserve" fill="#000000" fill-rule="nonzero" stroke="none" stroke-width="1" stroke-linecap="butt" stroke-linejoin="miter" stroke-miterlimit="10" stroke-dasharray="" stroke-dashoffset="0" font-family="Sans Serif" font-weight="normal" text-anchor="start" style="mix-blend-mode: normal"><tspan x="0" dy="0">"</tspan></text><text transform="translate(380.73507,276.56309) scale(0.23496,0.23496)" font-size="40" xml:space="preserve" fill="#000000" fill-rule="nonzero" stroke="none" stroke-width="1" stroke-linecap="butt" stroke-linejoin="miter" stroke-miterlimit="10" stroke-dasharray="" stroke-dashoffset="0" font-family="Sans Serif" font-weight="normal" text-anchor="start" style="mix-blend-mode: normal"><tspan x="0" dy="0">0</tspan></text><text transform="translate(395.87155,262.0145) scale(0.25431,0.25431)" font-size="40" xml:space="preserve" fill="#000000" fill-rule="nonzero" stroke="none" stroke-width="1" stroke-linecap="butt" stroke-linejoin="miter" stroke-miterlimit="10" stroke-dasharray="" stroke-dashoffset="0" font-family="Sans Serif" font-weight="normal" text-anchor="start" style="mix-blend-mode: normal"><tspan x="0" dy="0">;</tspan></text><text transform="translate(431.28531,265.36242) scale(0.40262,0.40262)" font-size="40" xml:space="preserve" fill="#000000" fill-rule="nonzero" stroke="none" stroke-width="1" stroke-linecap="butt" stroke-linejoin="miter" stroke-miterlimit="10" stroke-dasharray="" stroke-dashoffset="0" font-family="Sans Serif" font-weight="normal" text-anchor="start" style="mix-blend-mode: normal"><tspan x="0" dy="0">.</tspan></text><text transform="translate(430.69013,247.58115) scale(0.21561,0.21561)" font-size="40" xml:space="preserve" fill="#000000" fill-rule="nonzero" stroke="none" stroke-width="1" stroke-linecap="butt" stroke-linejoin="miter" stroke-miterlimit="10" stroke-dasharray="" stroke-dashoffset="0" font-family="Sans Serif" font-weight="normal" text-anchor="start" style="mix-blend-mode: normal"><tspan x="0" dy="0">?</tspan></text><text transform="translate(418.19115,262.31208) scale(0.25431,0.25431)" font-size="40" xml:space="preserve" fill="#000000" fill-rule="nonzero" stroke="none" stroke-width="1" stroke-linecap="butt" stroke-linejoin="miter" stroke-miterlimit="10" stroke-dasharray="" stroke-dashoffset="0" font-family="Sans Serif" font-weight="normal" text-anchor="start" style="mix-blend-mode: normal"><tspan x="0" dy="0">,</tspan></text><text transform="translate(446.42179,262.27124) scale(0.25431,0.25431)" font-size="40" xml:space="preserve" fill="#000000" fill-rule="nonzero" stroke="none" stroke-width="1" stroke-linecap="butt" stroke-linejoin="miter" stroke-miterlimit="10" stroke-dasharray="" stroke-dashoffset="0" font-family="Sans Serif" font-weight="normal" text-anchor="start" style="mix-blend-mode: normal"><tspan x="0" dy="0">!</tspan></text><text transform="translate(24,61.9942) scale(0.23897,0.23897)" font-size="40" xml:space="preserve" fill="#9966ff" fill-rule="nonzero" stroke="none" stroke-width="1" stroke-linecap="butt" stroke-linejoin="miter" stroke-miterlimit="10" stroke-dasharray="" stroke-dashoffset="0" font-family="Sans Serif" font-weight="normal" text-anchor="start" style="mix-blend-mode: normal"><tspan x="0" dy="0">https://commons.wikimedia.org/wiki/File:Flick_keyboard_kayout.svg</tspan></text><text transform="translate(356.25,303.3125) scale(0.23998,0.23998)" font-size="40" xml:space="preserve" fill="#9966ff" fill-rule="nonzero" stroke="none" stroke-width="1" stroke-linecap="butt" stroke-linejoin="miter" stroke-miterlimit="10" stroke-dasharray="" stroke-dashoffset="0" font-family="Sans Serif" font-weight="normal" text-anchor="start" style="mix-blend-mode: normal"><tspan x="0" dy="0"></tspan></text></g></g></svg>