<svg version="1.1" xmlns="http://www.w3.org/2000/svg" xmlns:xlink="http://www.w3.org/1999/xlink" width="95.81566" height="30.99647" viewBox="0,0,95.81566,30.99647"><defs><linearGradient x1="192.09312" y1="180.00011" x2="287.90772" y2="180.00011" gradientUnits="userSpaceOnUse" id="color-1"><stop offset="0.012" stop-color="#a7a9ac"/><stop offset="1" stop-color="#414042"/></linearGradient><linearGradient x1="195.6868" y1="179.9996" x2="284.3131" y2="179.9996" gradientUnits="userSpaceOnUse" id="color-2"><stop offset="0" stop-color="#d1d2d3"/><stop offset="1" stop-color="#a4a5a8"/></linearGradient></defs><g transform="translate(-192.09217,-164.50176)"><g data-paper-data="{&quot;isPaintingLayer&quot;:true}" fill-rule="nonzero" stroke="none" stroke-width="1" stroke-linecap="butt" stroke-linejoin="miter" stroke-miterlimit="10" stroke-dasharray="" stroke-dashoffset="0" style="mix-blend-mode: normal"><path d="M287.90783,190.6196c0,2.69416 -4.05791,4.87863 -9.06027,4.87863h-77.69617c-5.00342,0 -9.05922,-2.18504 -9.05922,-4.87863v-21.23977c0,-2.69416 4.0558,-4.87807 9.05922,-4.87807h77.69512c5.00552,0 9.06027,2.1839 9.06027,4.87807v21.23977z" fill="url(#color-1)"/><path d="M284.31215,169.37983v21.2392c0,1.62262 -2.45012,2.94249 -5.46564,2.94249h-77.69512c-3.01237,0 -5.46459,-1.31987 -5.46459,-2.94249v-21.23977c0,-1.62262 2.45222,-2.94249 5.46459,-2.94249h77.69512c3.01553,0 5.46564,1.32043 5.46564,2.94305z" fill="url(#color-2)"/><text transform="translate(200.31328,183.27061) scale(0.28348,0.28348)" font-size="40" xml:space="preserve" fill="#ffffff" fill-rule="nonzero" stroke="none" stroke-width="1" stroke-linecap="butt" stroke-linejoin="miter" stroke-miterlimit="10" stroke-dasharray="" stroke-dashoffset="0" font-family="Sans Serif" font-weight="normal" text-anchor="start" style="mix-blend-mode: normal"><tspan x="0" dy="0">カタカナにする</tspan></text></g></g></svg>